<svg width="180" height="38" viewBox="0 0 180 38" fill="none" xmlns="http://www.w3.org/2000/svg">
<path d="M19.8431 11.1369C19.7599 10.9774 19.6867 10.822 19.6245 10.653L19.6656 10.6335C19.9634 11.2486 20.3097 11.7496 20.732 12.2826C20.1383 12.025 19.2751 11.5966 18.8536 11.0937C18.8586 11.0908 18.863 11.0862 18.8687 11.085C18.9516 11.0682 19.2532 11.3582 19.3351 11.4265C19.5003 11.3151 19.6634 11.2227 19.8431 11.1369Z" fill="#00A363"/>
<path d="M41.785 33.6442C41.8994 33.6321 42.0299 33.6225 42.1427 33.6457C42.3174 33.6818 42.4894 33.8103 42.5796 33.9635C42.5902 33.9811 42.5998 33.9992 42.6084 34.0178C42.6171 34.0364 42.6248 34.0554 42.6315 34.0748C42.6382 34.0942 42.6439 34.1139 42.6485 34.1339C42.6531 34.1539 42.6567 34.174 42.6593 34.1944C42.6619 34.2147 42.6633 34.2352 42.6637 34.2558C42.6641 34.2763 42.6635 34.2967 42.6618 34.3172C42.6601 34.3377 42.6573 34.358 42.6535 34.3782C42.6497 34.3983 42.6448 34.4182 42.6389 34.4379C42.5722 34.6536 42.4136 34.7757 42.2246 34.8803C42.1014 34.9115 41.9783 34.9198 41.8534 34.8908C41.6872 34.8523 41.5458 34.7568 41.457 34.6096C41.4459 34.5909 41.4358 34.5718 41.4266 34.5521C41.4174 34.5324 41.4092 34.5123 41.402 34.4918C41.3948 34.4713 41.3886 34.4505 41.3835 34.4294C41.3784 34.4083 41.3743 34.387 41.3713 34.3655C41.3682 34.344 41.3662 34.3223 41.3653 34.3006C41.3644 34.2789 41.3646 34.2572 41.3658 34.2355C41.367 34.2138 41.3694 34.1922 41.3727 34.1707C41.3761 34.1492 41.3805 34.128 41.386 34.107C41.4449 33.8724 41.5826 33.7584 41.785 33.6442Z" fill="#00A363"/>
<path d="M1.58464 33.7068C1.71824 33.7 1.84182 33.7064 1.96596 33.7618C1.98722 33.7712 2.00793 33.7816 2.0281 33.793C2.04826 33.8045 2.06782 33.8169 2.08677 33.8304C2.10567 33.8439 2.12385 33.8583 2.14128 33.8736C2.15875 33.8889 2.1754 33.9051 2.19119 33.9221C2.20702 33.9392 2.22193 33.957 2.23593 33.9756C2.24993 33.9941 2.26295 34.0133 2.275 34.0332C2.28706 34.0531 2.29808 34.0736 2.30809 34.0946C2.31805 34.1156 2.32693 34.1371 2.33475 34.159C2.39348 34.3283 2.38208 34.5253 2.29384 34.6824C2.19056 34.8663 2.04574 34.9489 1.84773 34.9995C1.7302 35.0028 1.61519 35.0024 1.50383 34.959C1.48236 34.9507 1.46137 34.9414 1.44088 34.9309C1.42033 34.9205 1.40038 34.9091 1.38101 34.8968C1.3616 34.8843 1.34288 34.8709 1.32486 34.8566C1.30679 34.8423 1.28951 34.8272 1.27299 34.8111C1.25648 34.7951 1.24081 34.7783 1.22598 34.7606C1.21111 34.743 1.19717 34.7247 1.18419 34.7056C1.17116 34.6866 1.15915 34.6669 1.14815 34.6467C1.13709 34.6264 1.1271 34.6057 1.11814 34.5844C1.11008 34.5652 1.10297 34.5456 1.09684 34.5257C1.09066 34.5058 1.0855 34.4856 1.08134 34.4652C1.07722 34.4448 1.07409 34.4242 1.07195 34.4034C1.06986 34.3827 1.06876 34.3619 1.06867 34.341C1.06863 34.3202 1.0696 34.2994 1.07157 34.2786C1.07355 34.2579 1.07655 34.2373 1.08059 34.2168C1.08463 34.1964 1.08964 34.1762 1.09565 34.1562C1.1017 34.1363 1.1087 34.1167 1.11664 34.0974C1.20739 33.8801 1.37434 33.7857 1.58464 33.7068Z" fill="#00A363"/>
<path d="M36.3955 18.7747C36.6139 18.7577 36.837 18.8085 37.0315 18.9084C37.0496 18.9178 37.0675 18.9275 37.0851 18.9378C37.1026 18.9481 37.12 18.9588 37.137 18.9699C37.154 18.9811 37.1708 18.9927 37.1872 19.0048C37.2037 19.0168 37.2198 19.0292 37.2356 19.0422C37.2514 19.055 37.2668 19.0683 37.282 19.082C37.2971 19.0956 37.3118 19.1097 37.3262 19.1242C37.3406 19.1386 37.3546 19.1534 37.3682 19.1686C37.3818 19.1837 37.3951 19.1992 37.4079 19.2151C37.4207 19.231 37.4331 19.2472 37.4451 19.2637C37.457 19.2802 37.4686 19.297 37.4797 19.3142C37.4908 19.3312 37.5015 19.3486 37.5117 19.3663C37.5219 19.384 37.5317 19.4019 37.541 19.42C37.5503 19.4382 37.5591 19.4566 37.5674 19.4753C37.5758 19.4939 37.5836 19.5127 37.591 19.5318C37.5983 19.5508 37.6052 19.57 37.6116 19.5894C37.618 19.6088 37.6238 19.6284 37.6292 19.6481C37.7103 19.944 37.6789 20.2684 37.518 20.5324C37.3321 20.8377 37.0481 20.9642 36.7167 21.0463C36.4559 21.0594 36.2262 21.0222 35.9985 20.8857C35.981 20.875 35.9637 20.864 35.9467 20.8525C35.9297 20.841 35.913 20.8291 35.8966 20.8168C35.8802 20.8045 35.8642 20.7918 35.8484 20.7786C35.8326 20.7655 35.8172 20.752 35.8021 20.7381C35.787 20.7242 35.7723 20.7099 35.7578 20.6952C35.7435 20.6806 35.7295 20.6656 35.7159 20.6502C35.7022 20.6349 35.6889 20.6192 35.6761 20.6032C35.6632 20.5872 35.6508 20.5709 35.6388 20.5543C35.6267 20.5376 35.6151 20.5207 35.6039 20.5034C35.5927 20.4862 35.582 20.4687 35.5716 20.451C35.5613 20.4332 35.5514 20.4152 35.542 20.3969C35.5325 20.3787 35.5236 20.3602 35.515 20.3415C35.5065 20.3228 35.4985 20.3039 35.491 20.2847C35.4833 20.2656 35.4763 20.2464 35.4697 20.2269C35.4631 20.2074 35.4569 20.1878 35.4513 20.168C35.4456 20.1483 35.4405 20.1283 35.4359 20.1083C35.4277 20.0724 35.4214 20.0362 35.4169 19.9997C35.4124 19.9631 35.4098 19.9264 35.409 19.8896C35.4081 19.8528 35.4091 19.8161 35.412 19.7794C35.4149 19.7427 35.4197 19.7062 35.4263 19.67C35.4329 19.6338 35.4413 19.598 35.4514 19.5626C35.4616 19.5272 35.4735 19.4924 35.4872 19.4583C35.5009 19.4241 35.5163 19.3908 35.5333 19.3582C35.5504 19.3256 35.5691 19.294 35.5893 19.2632C35.7834 18.9718 36.0629 18.8403 36.3955 18.7747Z" fill="#FFD059"/>
<path d="M7.21236 18.7785C7.44604 18.7895 7.66206 18.8411 7.8595 18.9729C7.89122 18.9944 7.9218 19.0175 7.95125 19.0421C7.98074 19.0667 8.00895 19.0927 8.03589 19.12C8.06283 19.1473 8.08837 19.1759 8.11252 19.2058C8.13668 19.2357 8.15932 19.2667 8.18046 19.2988C8.20159 19.3308 8.22112 19.3639 8.23907 19.3979C8.25697 19.4319 8.27318 19.4667 8.28771 19.5023C8.30225 19.5379 8.315 19.5741 8.32596 19.611C8.33697 19.6478 8.34616 19.6851 8.35351 19.7229C8.36057 19.7599 8.36579 19.7972 8.36919 19.8347C8.37255 19.8723 8.37405 19.9099 8.37367 19.9476C8.37334 19.9853 8.37111 20.0229 8.36699 20.0604C8.36292 20.0979 8.35697 20.1351 8.34916 20.172C8.34139 20.2089 8.33179 20.2453 8.32036 20.2812C8.30893 20.3171 8.29576 20.3524 8.28085 20.387C8.26594 20.4216 8.24934 20.4554 8.23106 20.4883C8.21278 20.5213 8.19294 20.5532 8.17151 20.5842C7.96992 20.8758 7.69219 20.9977 7.35429 21.0565C7.07266 21.0565 6.80773 21.0001 6.57317 20.8357C6.55788 20.825 6.54286 20.814 6.5281 20.8026C6.51336 20.7912 6.49892 20.7794 6.48481 20.7673C6.47066 20.7551 6.45683 20.7426 6.44334 20.7297C6.42986 20.7169 6.41668 20.7037 6.40383 20.6901C6.39102 20.6766 6.37857 20.6627 6.36647 20.6485C6.35437 20.6343 6.34263 20.6198 6.33124 20.6051C6.31985 20.5903 6.30887 20.5752 6.29828 20.5598C6.28765 20.5445 6.27744 20.5288 6.26765 20.5129C6.25786 20.4971 6.24847 20.481 6.23948 20.4646C6.2305 20.4482 6.22195 20.4316 6.21384 20.4149C6.20569 20.398 6.19797 20.381 6.19071 20.3638C6.18344 20.3466 6.17664 20.3292 6.17029 20.3116C6.1639 20.2941 6.15798 20.2764 6.15253 20.2585C6.14706 20.2407 6.14205 20.2227 6.13746 20.2046C6.13292 20.1864 6.12885 20.1682 6.12524 20.1499C6.12163 20.1315 6.11848 20.1131 6.11578 20.0946C6.11041 20.0572 6.10687 20.0196 6.1052 19.9818C6.10347 19.9439 6.10365 19.9061 6.1057 19.8684C6.10772 19.8306 6.11158 19.7929 6.1173 19.7555C6.12301 19.7181 6.13054 19.6811 6.13986 19.6444C6.14923 19.6077 6.16036 19.5716 6.17327 19.5361C6.18616 19.5005 6.20077 19.4657 6.21707 19.4315C6.23341 19.3974 6.25137 19.3642 6.27096 19.3319C6.29053 19.2995 6.31165 19.2682 6.33429 19.238C6.55999 18.939 6.85604 18.8255 7.21236 18.7785Z" fill="#FFD059"/>
<path d="M28.6101 10.8998C28.8433 10.8793 29.0926 10.9565 29.2877 11.0829C29.5385 11.2453 29.7125 11.5142 29.7736 11.806C29.7777 11.8246 29.7813 11.8434 29.7844 11.8621C29.7875 11.881 29.7902 11.8998 29.7924 11.9188C29.7946 11.9378 29.7963 11.9568 29.7975 11.9758C29.7987 11.9948 29.7995 12.0139 29.7997 12.0329C29.8 12.052 29.7998 12.0711 29.799 12.0902C29.7984 12.1092 29.7972 12.1283 29.7955 12.1472C29.7939 12.1662 29.7918 12.1852 29.7892 12.2041C29.7866 12.223 29.7835 12.2418 29.7799 12.2605C29.7763 12.2793 29.7723 12.2979 29.7678 12.3164C29.7633 12.335 29.7583 12.3534 29.7529 12.3716C29.7475 12.3899 29.7416 12.408 29.7353 12.426C29.7289 12.444 29.7222 12.4618 29.7149 12.4794C29.7077 12.497 29.7 12.5145 29.6919 12.5317C29.6838 12.549 29.6752 12.566 29.6662 12.5828C29.6573 12.5996 29.6479 12.6162 29.638 12.6325C29.6283 12.6489 29.6181 12.6649 29.6074 12.6808C29.4026 12.9832 29.119 13.1054 28.7747 13.171C28.4892 13.1733 28.2304 13.1132 27.9928 12.9485C27.9772 12.9378 27.9619 12.9267 27.9469 12.9153C27.9319 12.9038 27.9172 12.892 27.9028 12.8798C27.8884 12.8675 27.8743 12.8549 27.8606 12.842C27.8469 12.8291 27.8335 12.8158 27.8204 12.8021C27.8073 12.7885 27.7946 12.7745 27.7823 12.7602C27.7699 12.7459 27.7579 12.7313 27.7463 12.7164C27.7347 12.7015 27.7235 12.6863 27.7127 12.6708C27.7019 12.6553 27.6915 12.6396 27.6814 12.6235C27.6714 12.6075 27.6618 12.5912 27.6526 12.5747C27.6435 12.5581 27.6347 12.5414 27.6264 12.5244C27.6181 12.5074 27.6102 12.4902 27.6028 12.4729C27.5953 12.4555 27.5883 12.4379 27.5818 12.4201C27.5753 12.4024 27.5692 12.3845 27.5635 12.3664C27.5579 12.3484 27.5528 12.3302 27.5481 12.3118C27.5434 12.2935 27.5392 12.2751 27.5354 12.2565C27.5317 12.238 27.5284 12.2194 27.5256 12.2006C27.5204 12.1634 27.517 12.126 27.5155 12.0884C27.514 12.0508 27.5145 12.0133 27.5167 11.9757C27.519 11.9382 27.5231 11.9008 27.5291 11.8637C27.5352 11.8266 27.543 11.7899 27.5526 11.7535C27.5624 11.7172 27.5738 11.6815 27.5871 11.6463C27.6003 11.6111 27.6153 11.5767 27.632 11.5431C27.6487 11.5094 27.6671 11.4767 27.6871 11.4449C27.707 11.4131 27.7285 11.3823 27.7516 11.3527C27.972 11.0685 28.2658 10.9482 28.6101 10.8998Z" fill="#FCAC32"/>
<path d="M14.8573 10.7694C15.1323 10.7385 15.3817 10.7522 15.6346 10.876C15.669 10.893 15.7025 10.9117 15.7351 10.932C15.7677 10.9524 15.7992 10.9743 15.8296 10.9977C15.86 11.0212 15.8892 11.0461 15.9172 11.0725C15.9452 11.0989 15.9718 11.1266 15.997 11.1556C16.0223 11.1846 16.046 11.2148 16.0683 11.2461C16.0906 11.2775 16.1112 11.3099 16.1303 11.3433C16.1494 11.3768 16.1668 11.411 16.1825 11.4462C16.1982 11.4813 16.2122 11.5171 16.2243 11.5537C16.2368 11.5898 16.2474 11.6264 16.2562 11.6635C16.2649 11.7007 16.2719 11.7382 16.2769 11.7761C16.2819 11.814 16.285 11.852 16.2862 11.8902C16.2874 11.9283 16.2867 11.9665 16.2841 12.0046C16.2815 12.0427 16.277 12.0805 16.2705 12.1182C16.2641 12.1558 16.2558 12.1931 16.2456 12.2299C16.2355 12.2667 16.2235 12.3029 16.2097 12.3385C16.1959 12.3741 16.1804 12.4089 16.1631 12.4429C15.9939 12.7704 15.7213 12.9379 15.3838 13.0472C15.1237 13.0991 14.8475 13.0841 14.6033 12.9745C14.3255 12.8499 14.1192 12.6182 14.0194 12.3306C13.9122 12.0213 13.9302 11.6569 14.0802 11.3649C14.2477 11.0387 14.5222 10.8787 14.8573 10.7694Z" fill="#FCAC32"/>
<path d="M6.09711 23.393C6.39348 23.3711 6.65369 23.3705 6.93028 23.5021C6.94892 23.5108 6.96733 23.52 6.98549 23.5297C7.00363 23.5393 7.02153 23.5494 7.03918 23.56C7.05682 23.5706 7.07419 23.5816 7.09129 23.5931C7.10834 23.6046 7.12513 23.6165 7.14164 23.6289C7.15811 23.6413 7.17424 23.654 7.19004 23.6672C7.20588 23.6803 7.22137 23.6939 7.23649 23.7079C7.25161 23.7219 7.26636 23.7362 7.28074 23.751C7.29515 23.7657 7.30916 23.7808 7.32277 23.7963C7.33637 23.8117 7.3496 23.8275 7.3624 23.8437C7.37521 23.8598 7.38759 23.8763 7.39952 23.893C7.4115 23.9098 7.42303 23.9269 7.43411 23.9443C7.44519 23.9617 7.45585 23.9793 7.46606 23.9973C7.47623 24.0152 7.48595 24.0334 7.49524 24.0518C7.50449 24.0702 7.51326 24.0888 7.52158 24.1078C7.52986 24.1266 7.53768 24.1457 7.54503 24.165C7.55233 24.1843 7.55916 24.2037 7.56551 24.2234C7.57155 24.2427 7.57711 24.2622 7.58215 24.2818C7.58724 24.3015 7.59179 24.3213 7.59583 24.3411C7.59987 24.361 7.60343 24.381 7.60649 24.401C7.60951 24.4211 7.61203 24.4412 7.61405 24.4614C7.61607 24.4816 7.61756 24.5018 7.61853 24.522C7.6195 24.5423 7.61996 24.5626 7.61991 24.5829C7.61987 24.6032 7.61931 24.6234 7.61821 24.6437C7.61712 24.6639 7.61553 24.6842 7.61343 24.7043C7.61129 24.7245 7.60866 24.7446 7.60555 24.7647C7.60239 24.7847 7.59875 24.8046 7.59459 24.8245C7.59043 24.8443 7.58577 24.8641 7.58059 24.8837C7.57543 24.9033 7.56978 24.9227 7.56364 24.9421C7.55751 24.9614 7.55087 24.9805 7.54372 24.9995C7.53657 25.0185 7.52898 25.0373 7.52092 25.0559C7.51285 25.0745 7.5043 25.0929 7.49527 25.111C7.48623 25.1292 7.47676 25.1471 7.46685 25.1648C7.29077 25.4789 7.0162 25.6529 6.6803 25.7543C6.40107 25.819 6.09762 25.8019 5.83289 25.6885C5.8152 25.681 5.79773 25.6731 5.78046 25.6647C5.7632 25.6564 5.74615 25.6476 5.72929 25.6383C5.71248 25.6291 5.69592 25.6194 5.67957 25.6093C5.66326 25.5992 5.64721 25.5886 5.63142 25.5777C5.61563 25.5667 5.60012 25.5554 5.58491 25.5436C5.56969 25.5319 5.5548 25.5198 5.54022 25.5072C5.52565 25.4947 5.5114 25.4818 5.49749 25.4686C5.48359 25.4553 5.47004 25.4417 5.45685 25.4278C5.44361 25.4138 5.43076 25.3995 5.41828 25.3849C5.4058 25.3703 5.3937 25.3553 5.38198 25.3401C5.3703 25.3248 5.359 25.3092 5.34807 25.2934C5.33714 25.2776 5.32665 25.2615 5.31656 25.2451C5.30648 25.2287 5.29684 25.2121 5.28764 25.1951C5.27839 25.1783 5.2696 25.1612 5.26123 25.1438C5.25291 25.1265 5.24502 25.1089 5.23753 25.0912C5.23009 25.0734 5.22312 25.0555 5.21661 25.0374C5.20943 25.0179 5.2027 24.9983 5.19644 24.9785C5.19022 24.9587 5.18451 24.9388 5.1793 24.9187C5.17409 24.8987 5.16936 24.8785 5.16512 24.8582C5.16091 24.8379 5.15722 24.8175 5.15403 24.797C5.15085 24.7765 5.14816 24.7559 5.14597 24.7353C5.14383 24.7146 5.14219 24.694 5.14105 24.6733C5.13988 24.6525 5.13925 24.6318 5.13915 24.6111C5.13908 24.5904 5.13949 24.5696 5.14042 24.5488C5.14134 24.5281 5.14278 24.5075 5.14476 24.4868C5.14673 24.4662 5.14924 24.4456 5.15226 24.4251C5.15525 24.4045 5.15876 24.3841 5.16278 24.3638C5.16678 24.3434 5.17128 24.3231 5.17633 24.303C5.18137 24.2829 5.18689 24.2629 5.19291 24.2431C5.19895 24.2232 5.20549 24.2036 5.21251 24.184C5.21952 24.1646 5.22702 24.1452 5.23501 24.1261C5.243 24.1069 5.25144 24.088 5.26034 24.0693C5.43629 23.7077 5.73418 23.5238 6.09711 23.393Z" fill="#FCAC32"/>
<path d="M21.798 16.6075C22.2876 16.9902 22.7959 17.5989 22.9028 18.2312C22.9589 18.5622 22.8853 18.9325 22.6854 19.2045C22.4827 19.4802 22.1775 19.6258 21.8466 19.6742C21.5441 19.6486 21.2526 19.5361 21.0292 19.3258C20.7864 19.0971 20.6644 18.7748 20.6639 18.4434C20.6627 17.66 21.2811 17.1074 21.798 16.6075Z" fill="#FFD059"/>
<path d="M37.1509 23.4589C37.4018 23.4395 37.6584 23.4808 37.8828 23.5986C37.9015 23.6085 37.9199 23.6189 37.9381 23.6297C37.9563 23.6406 37.9742 23.6519 37.9917 23.6636C38.0093 23.6754 38.0266 23.6876 38.0436 23.7003C38.0606 23.713 38.0772 23.7261 38.0935 23.7396C38.1098 23.7531 38.1258 23.767 38.1414 23.7813C38.157 23.7957 38.1722 23.8104 38.187 23.8256C38.2019 23.8407 38.2163 23.8562 38.2304 23.872C38.2444 23.8879 38.2581 23.9041 38.2713 23.9207C38.2845 23.9373 38.2973 23.9542 38.3097 23.9714C38.3221 23.9886 38.334 24.0061 38.3454 24.024C38.3569 24.0418 38.3679 24.0599 38.3785 24.0784C38.389 24.0968 38.3991 24.1154 38.4087 24.1344C38.4182 24.1533 38.4273 24.1724 38.4359 24.1918C38.4446 24.2112 38.4527 24.2308 38.4603 24.2506C38.4679 24.2705 38.475 24.2905 38.4816 24.3106C38.4882 24.3308 38.4942 24.3511 38.4998 24.3716C38.5058 24.3928 38.5113 24.414 38.5164 24.4355C38.5213 24.4569 38.5257 24.4785 38.5295 24.5001C38.5334 24.5217 38.5367 24.5435 38.5395 24.5653C38.5422 24.5871 38.5444 24.609 38.546 24.631C38.5476 24.6529 38.5487 24.6748 38.5491 24.6969C38.5496 24.7188 38.5496 24.7408 38.5489 24.7628C38.5483 24.7848 38.547 24.8067 38.5453 24.8287C38.5435 24.8506 38.5412 24.8725 38.5383 24.8942C38.5354 24.9161 38.5319 24.9378 38.5279 24.9594C38.5239 24.981 38.5194 25.0025 38.5143 25.0239C38.5091 25.0453 38.5035 25.0665 38.4972 25.0876C38.491 25.1087 38.4843 25.1296 38.477 25.1504C38.4697 25.1711 38.4619 25.1916 38.4536 25.212C38.4453 25.2324 38.4364 25.2525 38.4271 25.2723C38.4177 25.2922 38.4078 25.3118 38.3974 25.3312C38.387 25.3505 38.3761 25.3696 38.3648 25.3884C38.1533 25.7356 37.8445 25.8955 37.4627 25.9824C37.1776 25.9901 36.9059 25.9398 36.6608 25.7871C36.6429 25.7759 36.6252 25.7642 36.6079 25.7521C36.5905 25.7401 36.5735 25.7276 36.5568 25.7147C36.54 25.7018 36.5237 25.6884 36.5076 25.6747C36.4915 25.6609 36.4758 25.6468 36.4604 25.6323C36.4451 25.6178 36.4301 25.6029 36.4154 25.5876C36.4008 25.5723 36.3866 25.5567 36.3727 25.5407C36.3588 25.5247 36.3454 25.5085 36.3323 25.4918C36.3192 25.4752 36.3066 25.4582 36.2943 25.4409C36.2821 25.4236 36.2703 25.4061 36.259 25.3882C36.2477 25.3704 36.2368 25.3522 36.2263 25.3338C36.2158 25.3154 36.2058 25.2967 36.1963 25.2778C36.1867 25.2589 36.1777 25.2398 36.1691 25.2205C36.1605 25.2011 36.1524 25.1816 36.1447 25.1619C36.1371 25.1421 36.13 25.1221 36.1233 25.1021C36.1167 25.0819 36.1105 25.0617 36.1049 25.0412C36.0992 25.0208 36.0941 25.0003 36.0895 24.9796C36.0848 24.9595 36.0807 24.9394 36.077 24.9191C36.0733 24.8987 36.0702 24.8783 36.0675 24.8579C36.0649 24.8374 36.0628 24.8169 36.0612 24.7964C36.0596 24.7758 36.0585 24.7552 36.0579 24.7346C36.0573 24.714 36.0572 24.6933 36.0577 24.6727C36.0582 24.6521 36.0592 24.6315 36.0607 24.6109C36.0621 24.5903 36.0641 24.5698 36.0667 24.5493C36.0692 24.5289 36.0722 24.5085 36.0758 24.4881C36.0793 24.4678 36.0834 24.4476 36.088 24.4275C36.0925 24.4074 36.0976 24.3874 36.1031 24.3675C36.1087 24.3476 36.1147 24.3279 36.1213 24.3084C36.1278 24.2888 36.1349 24.2695 36.1424 24.2503C36.1499 24.2311 36.1579 24.2121 36.1664 24.1933C36.1749 24.1745 36.1838 24.1559 36.1932 24.1376C36.2026 24.1193 36.2125 24.1012 36.2228 24.0833C36.2331 24.0655 36.2439 24.0479 36.2551 24.0306C36.4696 23.7017 36.7803 23.5429 37.1509 23.4589Z" fill="#FCAC32"/>
<path d="M35.7836 14.9217C35.9943 14.8953 36.2229 14.9089 36.4359 14.9065C36.4071 15.0802 36.3722 15.2528 36.3312 15.424C36.1603 16.148 35.8267 16.8753 35.1695 17.2721C34.5205 17.6639 33.7717 17.6286 33.0611 17.4554C33.7081 17.0089 34.2988 16.4974 34.9598 16.0659C35.1767 15.9177 35.4226 15.7732 35.6032 15.5816C34.6247 15.9147 33.5632 16.2736 32.9207 17.1382C33.0411 16.6398 33.254 16.1858 33.585 15.7921C34.152 15.1178 34.9521 14.9938 35.7836 14.9217Z" fill="#00A363"/>
<path d="M7.08462 14.7611C7.67126 14.7635 8.24795 14.796 8.81279 14.9682C9.81365 15.2731 10.2219 15.8785 10.6936 16.7641C9.90837 16.5094 9.08698 16.2074 8.38545 15.7681C8.58289 16.0046 8.79993 16.2163 9.02939 16.4211C9.62019 16.9048 10.3202 17.2061 11.0356 17.4521C10.1492 17.5241 9.58692 17.7693 8.74675 17.2893C7.84198 16.7724 7.34729 15.732 7.08462 14.7611Z" fill="#00A363"/>
<path d="M10.8653 12.4206C11.3227 12.6516 12.155 13.8919 12.3321 14.4162C12.6238 15.2796 12.3552 16.0615 11.9652 16.8434C11.944 16.6344 11.9351 16.4086 11.8896 16.2039C11.782 15.7199 11.4566 14.7174 11.2289 14.2819L11.1983 14.2836L11.2021 14.4101C11.2163 15.4214 11.3296 16.3643 11.6265 17.3353C11.1351 16.7843 10.5937 16.2817 10.36 15.5574C9.99698 14.4325 10.3528 13.424 10.8653 12.4206Z" fill="#00A363"/>
<path d="M32.7485 12.3748C32.8763 12.5221 32.9793 12.7374 33.0697 12.91C33.4708 13.6762 33.7605 14.5263 33.4866 15.3845C33.2822 16.025 32.8695 16.25 32.3169 16.5405C32.3689 15.7799 32.4925 15.0228 32.5424 14.2594C32.5581 14.0198 32.5952 13.7625 32.5687 13.524L32.5421 13.5267L32.4948 13.6655C32.2485 14.5953 31.9355 15.5512 31.8487 16.5115C31.4211 16.0197 31.081 15.5208 31.1269 14.8359C31.1936 13.8378 32.0386 12.9904 32.7485 12.3748Z" fill="#00A363"/>
<path d="M21.7856 14.8369C21.9654 15.0164 22.1251 15.2272 22.3006 15.4138C22.7648 15.9078 23.291 16.3615 23.6199 16.9651C23.8578 17.4016 23.9486 17.8973 23.7955 18.381C23.6521 18.8343 23.3113 19.1462 22.8993 19.3539C23.0331 19.0407 23.2045 18.6573 23.1611 18.3086C23.0802 17.6594 22.4053 16.7334 21.8922 16.356C21.8336 16.3128 21.8463 16.3095 21.7708 16.3215C21.2839 16.7934 20.6655 17.3537 20.4995 18.0369C20.369 18.5738 20.5568 19.0574 20.8265 19.5103C20.3437 19.1601 19.8841 18.7685 19.7751 18.1453C19.5828 17.0453 20.5431 16.2548 21.2122 15.5471C21.4226 15.3246 21.6069 15.0854 21.7856 14.8369Z" fill="#FFD059"/>
<path d="M21.807 21.2345C22.5311 22.2141 23.6279 22.709 24.5654 23.4311C25.9143 24.47 26.5769 25.8083 26.7972 27.4762L26.1784 27.4825C25.9896 25.75 25.1005 24.5196 23.7687 23.4581C23.0744 22.9047 22.3895 22.4023 21.8235 21.7072C21.1192 22.5332 20.5402 22.9214 19.7235 23.5765C18.3908 24.6455 17.6817 25.8124 17.4127 27.4986L16.8895 27.4981C17.0447 25.3956 18.0331 24.0891 19.7598 22.9563C20.4837 22.4815 21.3037 21.9556 21.807 21.2345Z" fill="#00A363"/>
<path d="M23.131 19.4719C23.189 19.4676 23.2471 19.4654 23.3052 19.4654C23.3634 19.4655 23.4214 19.4677 23.4794 19.4721C23.5374 19.4765 23.5951 19.483 23.6526 19.4917C23.7101 19.5005 23.7672 19.5113 23.8239 19.5243C23.8806 19.5372 23.9367 19.5523 23.9922 19.5696C24.0478 19.5868 24.1027 19.606 24.1568 19.6273C24.211 19.6486 24.2642 19.6719 24.3166 19.6973C24.369 19.7226 24.4204 19.7498 24.4707 19.7789C25.0882 20.1328 25.4004 20.7061 25.5832 21.3748C26.5832 21.2394 27.4771 21.395 28.2978 22.0178C29.112 22.6357 29.6121 23.5098 29.7528 24.524C29.8961 25.5573 29.6402 26.651 29.0133 27.4892C28.7243 27.4751 28.4328 27.4779 28.1434 27.4734L28.3351 27.2202C28.4427 27.0556 28.5444 26.8905 28.6311 26.7137C29.0561 25.8466 29.1529 24.8603 28.8356 23.9407C28.5796 23.1987 28.0772 22.5934 27.3659 22.256C26.5058 21.848 25.6824 21.9787 24.8164 22.2874C24.8758 21.9727 24.8968 21.6652 24.8134 21.3513C24.8059 21.323 24.7976 21.2948 24.7887 21.267C24.7797 21.239 24.7701 21.2113 24.7597 21.1839C24.7494 21.1565 24.7383 21.1293 24.7266 21.1025C24.7149 21.0756 24.7025 21.0491 24.6894 21.0229C24.6763 20.9966 24.6626 20.9707 24.6482 20.9452C24.6338 20.9197 24.6188 20.8946 24.6031 20.8698C24.5875 20.845 24.5712 20.8207 24.5542 20.7968C24.5373 20.7728 24.5199 20.7494 24.5018 20.7263C24.4837 20.7033 24.465 20.6807 24.4458 20.6587C24.4266 20.6366 24.4068 20.6151 24.3865 20.594C24.3661 20.573 24.3453 20.5524 24.3239 20.5324C24.3025 20.5124 24.2807 20.493 24.2584 20.4741C24.236 20.4552 24.2132 20.4369 24.1899 20.4192C24.1666 20.4015 24.1429 20.3844 24.1187 20.3679C24.0946 20.3514 24.0701 20.3356 24.0451 20.3203C24.0202 20.3051 23.9948 20.2905 23.9691 20.2765C23.3908 19.9573 22.8132 20.0028 22.2045 20.1894C22.4564 19.8332 22.6801 19.5579 23.131 19.4719Z" fill="#FFD059"/>
<path d="M20.0548 19.4747C20.2672 19.4587 20.4855 19.4583 20.6929 19.5136C20.9165 19.573 21.2553 19.8713 21.3638 20.0748C21.3981 20.1392 21.3927 20.1099 21.3731 20.1809C20.9934 20.044 20.629 19.9919 20.2304 20.0668C19.7707 20.1532 19.3803 20.4069 19.1197 20.7988C18.8072 21.2688 18.7787 21.7494 18.8794 22.2921C17.9677 21.973 17.1683 21.8535 16.271 22.2959C15.5464 22.6532 15.0492 23.2861 14.7987 24.05C14.4811 25.0184 14.6455 25.9762 15.0969 26.87C15.2261 27.0911 15.3676 27.3001 15.5141 27.5099C15.2178 27.5103 14.9215 27.5078 14.6252 27.5025C14.0637 26.6432 13.7714 25.6363 13.897 24.606C14.0238 23.5654 14.5074 22.6703 15.3363 22.0282C16.1801 21.3746 17.0881 21.2432 18.1203 21.3764C18.1972 20.9949 18.3333 20.6415 18.5665 20.3279C18.9398 19.8261 19.4463 19.565 20.0548 19.4747Z" fill="#FFD059"/>
<path d="M21.8037 4.7668C21.9192 4.80959 22.02 4.9474 22.0997 5.03872C23.1015 6.18607 23.8674 7.71735 23.7511 9.27691C23.6419 10.7415 22.9381 11.6833 21.8677 12.61C21.7987 12.5932 21.7553 12.5516 21.7015 12.5061C20.7159 11.6741 20.0457 10.5576 19.9368 9.2547C19.7959 7.56831 20.7616 5.99963 21.8037 4.7668Z" fill="#168B5D"/>
<path d="M21.8062 22.2691C21.8109 22.2715 21.8159 22.2733 21.8202 22.2764C22.1424 22.5078 22.4004 22.8656 22.7125 23.1202C24.4073 24.5022 25.4256 25.156 25.8504 27.4754L21.8528 27.4686L17.7537 27.4745C17.9266 26.0918 18.7271 24.9263 19.7736 24.0488C20.4782 23.458 21.1905 22.97 21.8062 22.2691Z" fill="#00A363"/>
<path d="M21.8099 0C22.0074 0.424173 22.2256 0.829623 22.5011 1.2083C23.5843 2.69705 25.2049 3.838 25.929 5.58121C26.441 6.81374 26.5284 8.217 26.0165 9.46339C25.4746 10.7829 24.2669 11.7456 22.9794 12.2815C23.8209 11.2229 24.4197 10.1353 24.3809 8.74047C24.3266 6.79235 23.2257 5.01991 21.8514 3.70752C21.1211 4.32218 20.3204 5.47174 19.917 6.33634C19.2441 7.77815 19.1214 9.13745 19.6656 10.6335L19.6245 10.653C19.6867 10.822 19.7599 10.9774 19.8431 11.1369C19.6634 11.2227 19.5003 11.3151 19.3351 11.4265C19.2532 11.3582 18.9516 11.0682 18.8687 11.085C18.863 11.0862 18.8586 11.0908 18.8536 11.0937C18.334 10.7579 17.8035 9.81932 17.5933 9.24947C17.36 8.61672 17.2927 7.95841 17.3276 7.28731C17.4045 5.80774 18.2114 4.44877 19.1954 3.38306C19.8202 2.70646 20.5178 2.07023 21.0652 1.32756C21.3708 0.913084 21.5986 0.467658 21.8099 0Z" fill="#00A363"/>
<path d="M26.7425 36.6925L37.8525 36.6842L41.5355 36.6888C42.0999 36.6894 42.6914 36.6474 43.252 36.6908C43.4384 36.7052 43.6292 36.7537 43.7693 36.8848C43.9014 37.0084 43.9972 37.2224 43.9999 37.4039C44.0019 37.5337 43.9493 37.6502 43.8588 37.7419C43.7177 37.8851 43.5117 37.9578 43.3152 37.9755C42.6292 38.0373 41.7764 37.9627 41.0704 37.9633L0.00176083 37.8859L0 36.7443L17.2869 36.735C20.4389 36.7437 23.5908 36.7296 26.7425 36.6925Z" fill="#FCAC32"/>
<path d="M17.3813 4.88228L17.4551 4.88849C17.4426 5.06112 17.2328 5.33735 17.166 5.51807C16.9795 6.02255 16.8126 6.56467 16.7522 7.09979C16.518 7.16564 16.2852 7.23625 16.0539 7.31158C15.8225 7.38689 15.5928 7.46689 15.3646 7.55162C15.1365 7.63628 14.9101 7.72557 14.6856 7.81949C14.4611 7.9134 14.2385 8.01185 14.018 8.11483C13.7974 8.21781 13.579 8.32524 13.3628 8.43712C13.1466 8.549 12.9328 8.66523 12.7212 8.7858C12.5097 8.90642 12.3007 9.03127 12.0943 9.16036C11.8878 9.28946 11.684 9.42271 11.4829 9.56011C11.3548 9.64614 11.2278 9.73371 11.1018 9.82285C10.9758 9.91198 10.851 10.0027 10.7272 10.0948C10.6034 10.187 10.4808 10.2808 10.3593 10.376C10.2378 10.4712 10.1176 10.5679 9.99845 10.6661C9.8793 10.7643 9.76137 10.8639 9.64467 10.965C9.528 11.0661 9.41257 11.1686 9.29837 11.2725C9.18417 11.3764 9.07125 11.4817 8.95959 11.5884C8.84796 11.6951 8.73766 11.8031 8.62867 11.9125C8.51969 12.0219 8.41202 12.1326 8.30569 12.2447C8.1994 12.3567 8.0945 12.4701 7.99098 12.5847C7.88742 12.6993 7.78528 12.8152 7.68458 12.9323C7.58388 13.0494 7.48461 13.1678 7.38675 13.2874C7.28895 13.4069 7.19259 13.5277 7.09768 13.6496C7.00281 13.7716 6.90944 13.8947 6.81757 14.0189C6.72569 14.1431 6.63531 14.2685 6.54646 14.3949C6.45765 14.5214 6.37038 14.6489 6.28467 14.7775C6.19893 14.9061 6.11478 15.0357 6.03221 15.1664C5.94965 15.2971 5.86869 15.4287 5.78934 15.5614C5.70998 15.6941 5.63227 15.8277 5.55618 15.9623C5.48009 16.0968 5.40564 16.2323 5.33284 16.3687C5.26003 16.5051 5.1889 16.6424 5.11946 16.7806C5.05001 16.9187 4.98227 17.0576 4.91622 17.1975C4.85014 17.3373 4.78578 17.4779 4.72313 17.6193C4.66053 17.7607 4.59964 17.9028 4.54044 18.0457C4.48128 18.1886 4.42387 18.3322 4.36821 18.4765C4.3125 18.6208 4.25858 18.7657 4.20644 18.9114C4.1543 19.057 4.10395 19.2032 4.05539 19.3501C4.00681 19.497 3.96005 19.6444 3.91504 19.7924C3.8701 19.9404 3.82693 20.089 3.78554 20.2381C3.74419 20.3871 3.70467 20.5367 3.66694 20.6867C3.62921 20.8368 3.59334 20.9873 3.5593 21.1382C3.52527 21.2891 3.49307 21.4404 3.46268 21.5921C2.48193 26.7571 3.52892 31.747 6.47128 36.0889L0.709952 36.0811L0.0185702 36.082C0.00886775 35.9748 0.0155471 35.8646 0.0173692 35.7569L3.99374 35.7728C3.02181 33.9956 2.30578 32.3469 1.79665 30.3737C1.75439 30.2085 1.71415 30.0428 1.67597 29.8766C1.63782 29.7104 1.6017 29.5438 1.56763 29.3767C1.53356 29.2096 1.50156 29.0421 1.47165 28.8742C1.44174 28.7063 1.41388 28.538 1.3881 28.3694C1.36234 28.2009 1.33867 28.032 1.31708 27.8628C1.29549 27.6936 1.27598 27.5242 1.25853 27.3545C1.24113 27.1849 1.22583 27.015 1.21259 26.8449C1.19934 26.6749 1.18824 26.5047 1.17926 26.3344C1.17022 26.164 1.16328 25.9936 1.15845 25.8231C1.15367 25.6526 1.15097 25.4821 1.15039 25.3115C1.1498 25.1409 1.15129 24.9704 1.15487 24.7999C1.15848 24.6294 1.16422 24.4589 1.17207 24.2885C1.17989 24.1182 1.18981 23.9479 1.20182 23.7778C1.21383 23.6076 1.22795 23.4376 1.24417 23.2678C1.26043 23.0981 1.27874 22.9285 1.29912 22.7592C1.31954 22.5899 1.34204 22.4208 1.36661 22.2521C1.39122 22.0833 1.4179 21.9148 1.44665 21.7467C1.47537 21.5786 1.5062 21.4109 1.5391 21.2435C1.572 21.0762 1.60693 20.9093 1.6439 20.7429C1.68092 20.5764 1.71998 20.4104 1.76112 20.2449C1.80221 20.0794 1.84536 19.9144 1.89056 19.75C1.93572 19.5856 1.98292 19.4217 2.03216 19.2585C2.08136 19.0952 2.13259 18.9326 2.18587 18.7706C2.23911 18.6087 2.29433 18.4474 2.35154 18.2868C2.40877 18.1262 2.46796 17.9664 2.52913 17.8072C2.59031 17.6481 2.65343 17.4898 2.71851 17.3322C2.78359 17.1747 2.85059 17.0179 2.91954 16.8621C2.98852 16.7062 3.0594 16.5512 3.13216 16.3971C3.20492 16.243 3.27961 16.0898 3.3562 15.9375C3.43274 15.7853 3.51117 15.634 3.59145 15.4837C3.67174 15.3333 3.75387 15.1841 3.83785 15.0358C3.92183 14.8876 4.00763 14.7404 4.09528 14.5943C4.16977 14.4704 4.24549 14.3472 4.32246 14.2248C4.39942 14.1025 4.47764 13.9809 4.55708 13.8601C4.63648 13.7394 4.71713 13.6195 4.799 13.5003C4.88089 13.3812 4.96396 13.263 5.04825 13.1456C5.13253 13.0282 5.21797 12.9116 5.30461 12.7959C5.39124 12.6803 5.47905 12.5655 5.56804 12.4516C5.65702 12.3378 5.74713 12.2248 5.83839 12.1128C5.92964 12.0008 6.02202 11.8897 6.11554 11.7796C6.20906 11.6695 6.3037 11.5603 6.39945 11.4521C6.4952 11.3439 6.59201 11.2367 6.6899 11.1305C6.78783 11.0243 6.88682 10.9191 6.98685 10.8149C7.08693 10.7108 7.18802 10.6076 7.29016 10.5056C7.39229 10.4034 7.49546 10.3024 7.59966 10.2024C7.70389 10.1024 7.80909 10.0034 7.91525 9.90559C8.02147 9.80777 8.12866 9.71103 8.23683 9.61538C8.34502 9.51971 8.45415 9.42516 8.56421 9.33176C8.6743 9.23835 8.78531 9.14606 8.89727 9.0549C9.00924 8.96377 9.12213 8.87379 9.23593 8.78493C9.34971 8.69609 9.46437 8.60845 9.57995 8.522C9.69553 8.43552 9.81198 8.35021 9.92927 8.26609C10.0466 8.18201 10.1647 8.09911 10.2837 8.0174C10.4027 7.93572 10.5225 7.85528 10.6431 7.77604C10.7637 7.69682 10.8851 7.61883 11.0073 7.54209C11.1295 7.46535 11.2525 7.38988 11.3762 7.31567C11.5 7.24141 11.6244 7.16846 11.7496 7.09678C11.8748 7.0251 12.0008 6.95471 12.1274 6.88561C12.2541 6.81651 12.3814 6.74871 12.5094 6.68223C12.6374 6.61574 12.7661 6.55059 12.8954 6.48675C13.0248 6.42288 13.1548 6.36033 13.2854 6.29912C13.416 6.23794 13.5472 6.1781 13.6791 6.11958C13.8109 6.06106 13.9433 6.0039 14.0763 5.94808C14.2092 5.89231 14.3428 5.83789 14.4769 5.78482C15.4228 5.41037 16.3981 5.13661 17.3813 4.88228Z" fill="#FCAC32"/>
<path d="M26.2083 4.90943C26.635 5.00833 27.0581 5.12088 27.4776 5.2471C27.8971 5.37333 28.3121 5.51296 28.7226 5.66602C29.1332 5.81907 29.5384 5.98525 29.9383 6.16456C30.3382 6.34382 30.7319 6.53581 31.1195 6.74054C31.2739 6.82007 31.4274 6.90149 31.5799 6.98482C31.7324 7.06814 31.8838 7.15333 32.0342 7.2404C32.1846 7.32743 32.334 7.41632 32.4822 7.50707C32.6304 7.59786 32.7775 7.69043 32.9234 7.78481C33.0694 7.87919 33.2141 7.97536 33.3577 8.07332C33.5013 8.17133 33.6437 8.27106 33.7848 8.37251C33.926 8.47401 34.0659 8.57723 34.2045 8.68215C34.3431 8.78711 34.4804 8.89376 34.6164 9.00209C34.7524 9.11042 34.8871 9.22043 35.0204 9.3321C35.1537 9.44377 35.2856 9.55707 35.4161 9.67199C35.5467 9.78691 35.6758 9.90342 35.8034 10.0216C35.9311 10.1397 36.0573 10.2594 36.182 10.3806C36.3068 10.5018 36.43 10.6246 36.5517 10.7488C36.6734 10.8731 36.7936 10.9989 36.9122 11.1262C37.0309 11.2534 37.148 11.3821 37.2634 11.5123C37.3789 11.6424 37.4928 11.774 37.6051 11.9069C37.7174 12.0399 37.828 12.1742 37.937 12.3099C38.0459 12.4456 38.1532 12.5827 38.2588 12.721C38.3644 12.8594 38.4683 12.999 38.5705 13.1399C38.6727 13.2808 38.7732 13.423 38.8719 13.5664C38.9706 13.7098 39.0676 13.8544 39.1627 14.0002C39.2579 14.146 39.3512 14.293 39.4428 14.4411C39.5343 14.5892 39.6241 14.7384 39.712 14.8887C39.7999 15.039 39.8859 15.1904 39.9701 15.3429C40.0543 15.4953 40.1366 15.6488 40.217 15.8032C40.2974 15.9577 40.3759 16.1132 40.4526 16.2696C40.5292 16.4261 40.6038 16.5834 40.6766 16.7417C40.7494 16.8999 40.8202 17.0591 40.889 17.2192C40.9579 17.3792 41.0248 17.54 41.0897 17.7017C41.1546 17.8633 41.2175 18.0258 41.2784 18.1891C41.3394 18.3523 41.3983 18.5162 41.4552 18.6809C41.5121 18.8456 41.567 19.011 41.6199 19.177C41.6624 19.3118 41.7036 19.447 41.7434 19.5827C41.7832 19.7183 41.8215 19.8543 41.8585 19.9908C41.8954 20.1272 41.931 20.264 41.9652 20.4012C41.9993 20.5384 42.032 20.6759 42.0633 20.8138C42.0946 20.9516 42.1245 21.0898 42.153 21.2283C42.1814 21.3668 42.2084 21.5056 42.234 21.6446C42.2596 21.7836 42.2837 21.9229 42.3065 22.0624C42.3292 22.202 42.3504 22.3418 42.3702 22.4818C42.3901 22.6218 42.4084 22.7619 42.4254 22.9023C42.4423 23.0427 42.4578 23.1832 42.4718 23.3239C42.4859 23.4646 42.4985 23.6054 42.5096 23.7464C42.5207 23.8873 42.5304 24.0284 42.5386 24.1696C42.5468 24.3107 42.5536 24.4519 42.5589 24.5932C42.5642 24.7346 42.568 24.8759 42.5704 25.0173C42.5728 25.1587 42.5737 25.3 42.5732 25.4415C42.5726 25.5828 42.5706 25.7242 42.5672 25.8656C42.5637 26.0069 42.5588 26.1482 42.5524 26.2895C42.5461 26.4307 42.5383 26.5719 42.529 26.713C42.5197 26.8541 42.5089 26.9951 42.4967 27.1359C42.4845 27.2768 42.4709 27.4175 42.4558 27.5581C42.4407 27.6987 42.4241 27.8391 42.4062 27.9793C42.3882 28.1196 42.3687 28.2596 42.3479 28.3994C42.3269 28.5393 42.3046 28.6789 42.2809 28.8182C42.2571 28.9576 42.2319 29.0967 42.2053 29.2356C42.1786 29.3744 42.1506 29.513 42.1211 29.6513C42.0915 29.7895 42.0606 29.9275 42.0283 30.0651C41.996 30.2027 41.9622 30.34 41.927 30.4769C41.8918 30.6138 41.8552 30.7503 41.8172 30.8865C41.7792 31.0226 41.7398 31.1584 41.699 31.2937C41.6582 31.4291 41.616 31.564 41.5724 31.6984C41.5289 31.8329 41.4839 31.9669 41.4376 32.1004C41.3912 32.2339 41.3435 32.3669 41.2944 32.4994C40.8548 33.6535 40.3038 34.6322 39.743 35.7229C40.5979 35.7146 41.4528 35.7136 42.3077 35.7197C42.7079 35.7208 43.1342 35.6853 43.5315 35.7235C43.6536 35.7353 43.7533 35.7586 43.8589 35.8209L43.8576 35.9416C43.65 36.0929 43.3683 36.0536 43.1274 36.0478L37.1006 36.0683C38.2551 34.5802 39.1418 32.8182 39.7338 31.0319C41.2577 26.4331 40.7271 21.2558 38.5761 16.9449C38.5176 16.827 38.4578 16.7096 38.3968 16.5929C38.3359 16.4761 38.2737 16.3601 38.2104 16.2446C38.147 16.1292 38.0825 16.0144 38.0167 15.9003C37.951 15.7862 37.8841 15.6728 37.8161 15.5601C37.7481 15.4473 37.6789 15.3353 37.6085 15.224C37.5382 15.1127 37.4667 15.0022 37.3941 14.8924C37.3214 14.7826 37.2477 14.6736 37.1728 14.5653C37.098 14.457 37.022 14.3495 36.9449 14.2428C36.8679 14.1362 36.7897 14.0303 36.7104 13.9252C36.6312 13.8201 36.5509 13.7158 36.4695 13.6124C36.3882 13.509 36.3057 13.4064 36.2222 13.3047C36.1387 13.203 36.0542 13.1022 35.9686 13.0022C35.8831 12.9023 35.7965 12.8032 35.7089 12.7051C35.6213 12.6069 35.5326 12.5096 35.4431 12.4133C35.3535 12.317 35.2629 12.2216 35.1713 12.1272C35.0798 12.0327 34.9872 11.9392 34.8938 11.8467C34.8003 11.7541 34.7059 11.6626 34.6105 11.572C34.5151 11.4814 34.4188 11.3919 34.3216 11.3033C34.2244 11.2147 34.1263 11.1272 34.0273 11.0406C33.9283 10.9541 33.8285 10.8685 33.7277 10.7841C33.6269 10.6996 33.5253 10.6161 33.4228 10.5338C33.3203 10.4514 33.217 10.3701 33.1129 10.2899C33.0087 10.2097 32.9038 10.1305 32.798 10.0525C32.6922 9.9744 32.5857 9.89743 32.4783 9.82158C32.371 9.74577 32.2629 9.67106 32.154 9.59743C32.0451 9.52382 31.9354 9.45133 31.8251 9.37999C31.7147 9.30865 31.6035 9.23849 31.4918 9.16946C31.3799 9.10044 31.2674 9.03259 31.1542 8.96588C31.0409 8.89915 30.927 8.8336 30.8125 8.76927C30.698 8.70493 30.5827 8.64181 30.4669 8.57987C30.351 8.51789 30.2345 8.45715 30.1174 8.39762C30.0003 8.3381 29.8826 8.27978 29.7643 8.22265C28.8332 7.7719 27.8738 7.41663 26.8938 7.08965C26.7801 6.30314 26.5743 5.61488 26.2083 4.90943Z" fill="#FCAC32"/>
<path d="M19.5237 13.405C19.6003 13.4025 19.6761 13.3978 19.7524 13.3925C19.4159 13.4783 19.072 13.5314 18.7358 13.6187C18.5051 13.68 18.2765 13.7485 18.0499 13.824C17.8234 13.8995 17.5994 13.982 17.3779 14.0714C17.1565 14.1609 16.938 14.2571 16.7225 14.3601C16.507 14.4631 16.2948 14.5726 16.086 14.6888C16.0033 14.7352 15.9213 14.7826 15.8398 14.8309C15.7583 14.8794 15.6774 14.9288 15.5972 14.9792C15.5169 15.0296 15.4372 15.081 15.3582 15.1333C15.2792 15.1857 15.2008 15.239 15.1231 15.2932C15.0454 15.3475 14.9683 15.4027 14.8919 15.4589C14.8155 15.515 14.7398 15.5721 14.6648 15.6301C14.5898 15.6881 14.5155 15.7471 14.4419 15.8069C14.3683 15.8668 14.2955 15.9275 14.2234 15.9891C14.1513 16.0507 14.08 16.1133 14.0095 16.1766C13.9389 16.24 13.8691 16.3042 13.8001 16.3693C13.731 16.4344 13.6628 16.5003 13.5954 16.5671C13.5281 16.6339 13.4615 16.7014 13.3957 16.7698C13.3299 16.8382 13.265 16.9074 13.2009 16.9774C13.1368 17.0474 13.0736 17.1181 13.0112 17.1896C12.9489 17.2612 12.8874 17.3335 12.8268 17.4065C12.7662 17.4795 12.7065 17.5533 12.6477 17.6278C12.5889 17.7023 12.531 17.7775 12.474 17.8534C12.417 17.9294 12.361 18.006 12.3059 18.0833C12.2508 18.1606 12.1966 18.2386 12.1433 18.3172C12.0902 18.3958 12.0379 18.4751 11.9866 18.555C11.9353 18.6349 11.885 18.7154 11.8357 18.7966C11.7864 18.8777 11.738 18.9595 11.6907 19.0418C11.6433 19.1241 11.597 19.207 11.5517 19.2905C11.5063 19.374 11.462 19.458 11.4188 19.5425C11.3754 19.6271 11.3332 19.7122 11.292 19.7977C11.2508 19.8833 11.2106 19.9694 11.1715 20.056C11.1324 20.1426 11.0943 20.2296 11.0573 20.3171C11.0203 20.4046 10.9843 20.4925 10.9494 20.5809C10.9146 20.6693 10.8808 20.7582 10.8481 20.8473C10.8154 20.9366 10.7838 21.0262 10.7533 21.1162C10.7227 21.2061 10.6933 21.2965 10.665 21.3872C10.6367 21.478 10.6094 21.569 10.5833 21.6604C10.5569 21.7526 10.5317 21.8451 10.5076 21.938C10.4834 22.0308 10.4604 22.124 10.4385 22.2174C10.4167 22.3108 10.396 22.4045 10.3764 22.4984C10.3568 22.5923 10.3384 22.6865 10.3211 22.7808C10.3039 22.8752 10.2878 22.9698 10.2728 23.0646C10.2579 23.1594 10.2441 23.2543 10.2314 23.3494C10.2188 23.4445 10.2073 23.5398 10.197 23.6352C10.1867 23.7306 10.1776 23.8261 10.1696 23.9217C10.1616 24.0174 10.1548 24.1131 10.1491 24.2088C10.1435 24.3046 10.139 24.4005 10.1357 24.4964C10.1324 24.5923 10.1303 24.6882 10.1293 24.7842C10.1284 24.8801 10.1286 24.9761 10.13 25.072C10.1313 25.168 10.1339 25.2639 10.1376 25.3598C10.1413 25.4557 10.1462 25.5515 10.1523 25.6473C10.1584 25.743 10.1656 25.8387 10.174 25.9343C10.1824 26.0299 10.192 26.1253 10.2027 26.2207C10.2134 26.3161 10.2253 26.4113 10.2383 26.5063C10.2514 26.6014 10.2656 26.6962 10.281 26.7909C10.2964 26.8857 10.3129 26.9802 10.3306 27.0745C10.3483 27.1688 10.3671 27.2629 10.3871 27.3567C10.4071 27.4505 10.4282 27.5441 10.4505 27.6374C10.4727 27.7307 10.4961 27.8237 10.5207 27.9165C10.5452 28.0092 10.5709 28.1017 10.5977 28.1937C10.6244 28.2859 10.6523 28.3777 10.6814 28.4691C10.7104 28.5605 10.7405 28.6515 10.7718 28.7422C10.8031 28.8329 10.8354 28.9232 10.8689 29.013C10.9024 29.1029 10.9369 29.1924 10.9726 29.2814C11.0082 29.3705 11.0449 29.4591 11.0827 29.5472C11.1205 29.6353 11.1594 29.723 11.1994 29.8102C11.2393 29.8973 11.2803 29.984 11.3224 30.0702C11.3645 30.1563 11.4076 30.2419 11.4518 30.327C11.4959 30.4121 11.5411 30.4967 11.5873 30.5807C11.6343 30.6639 11.6823 30.7466 11.7313 30.8287C11.7802 30.9109 11.8302 30.9924 11.8812 31.0732C11.9321 31.1541 11.9841 31.2344 12.037 31.314C12.09 31.3935 12.1439 31.4725 12.1987 31.5508C12.2536 31.629 12.3093 31.7066 12.3661 31.7835C12.4229 31.8604 12.4806 31.9366 12.5392 32.0121C12.5978 32.0876 12.6573 32.1623 12.7177 32.2364C12.7782 32.3103 12.8395 32.3836 12.9017 32.4561C12.9639 32.5286 13.027 32.6004 13.091 32.6713C13.155 32.7423 13.2198 32.8124 13.2854 32.8818C13.3512 32.9512 13.4177 33.0197 13.485 33.0874C13.5524 33.1552 13.6205 33.222 13.6895 33.2881C13.7585 33.3541 13.8283 33.4193 13.8989 33.4837C13.9694 33.548 14.0407 33.6115 14.1129 33.674C14.185 33.7366 14.2579 33.7983 14.3315 33.8591C14.4052 33.9198 14.4795 33.9797 14.5546 34.0387C14.6296 34.0976 14.7054 34.1557 14.782 34.2127C14.8584 34.2699 14.9357 34.326 15.0136 34.3812C15.0914 34.4364 15.1699 34.4906 15.2491 34.5439C15.3283 34.5971 15.4082 34.6494 15.4887 34.7007C15.5691 34.752 15.6502 34.8023 15.7319 34.8516C15.8136 34.9009 15.8959 34.9492 15.9788 34.9965C16.0617 35.0438 16.1451 35.09 16.2291 35.1352C16.3131 35.1805 16.3977 35.2247 16.4827 35.2678C16.5678 35.311 16.6534 35.3531 16.7395 35.3941C16.8256 35.4351 16.9122 35.4751 16.9993 35.514C17.0864 35.5529 17.1739 35.5908 17.262 35.6275C17.3499 35.6643 17.4384 35.6999 17.5273 35.7345C17.6161 35.7691 17.7054 35.8026 17.7951 35.835C17.8848 35.8674 17.9749 35.8987 18.0653 35.9289C18.1558 35.959 18.2466 35.9881 18.3378 36.016C18.4289 36.0439 18.5204 36.0707 18.6123 36.0964C17.2689 36.0219 15.8939 36.0924 14.5475 36.0946L7.50631 36.0724L7.23532 35.7117C5.51263 33.2089 4.44484 30.6485 3.98744 27.6365C3.79347 26.3592 3.71873 25.0749 3.88416 23.7902C3.97882 25.1416 4.41888 26.5352 5.80396 27.0554C6.37069 27.2682 6.95873 27.3705 7.50347 27.649C8.2483 28.0298 8.84489 28.6203 9.35988 29.2719C9.21765 28.5838 9.03816 27.9024 8.95209 27.2037C8.51505 23.6578 9.46544 20.4755 11.6577 17.6738C13.5361 15.2731 16.535 13.7666 19.5237 13.405Z" fill="#00A363"/>
<path d="M8.21228 31.5008C8.71429 31.4232 9.32632 31.4692 9.82267 31.558C11.0875 31.7843 12.099 32.4731 12.8217 33.533C13.0374 33.8492 14.0541 35.5982 13.9983 35.9054C13.8285 35.6147 13.7054 35.2957 13.5466 34.9973C13.153 34.2214 12.5358 33.5229 11.8556 32.9879C10.3762 31.8243 8.58397 31.5825 6.76505 31.8077C7.22799 31.6316 7.72281 31.5565 8.21228 31.5008Z" fill="#FEFEFE"/>
<path d="M23.9612 13.398C24.5512 13.4663 25.1337 13.5749 25.7088 13.7236C25.8058 13.7493 25.9024 13.7761 25.9987 13.8042C26.095 13.8322 26.1909 13.8615 26.2865 13.8919C26.382 13.9223 26.4772 13.954 26.5721 13.9867C26.6668 14.0196 26.7612 14.0535 26.8551 14.0887C26.9491 14.1238 27.0426 14.1601 27.1357 14.1976C27.2288 14.2351 27.3214 14.2737 27.4135 14.3134C27.5056 14.3532 27.5972 14.3941 27.6883 14.4361C27.7794 14.4781 27.87 14.5213 27.96 14.5656C28.0501 14.6099 28.1396 14.6553 28.2285 14.7018C28.3174 14.7483 28.4058 14.7959 28.4935 14.8446C28.5812 14.8933 28.6684 14.9431 28.7549 14.9939C28.8414 15.0448 28.9273 15.0968 29.0126 15.1497C29.0979 15.2027 29.1824 15.2568 29.2663 15.3119C29.3502 15.3669 29.4335 15.4231 29.516 15.4803C29.5986 15.5374 29.6804 15.5956 29.7615 15.6548C29.8426 15.714 29.923 15.7742 30.0026 15.8354C30.0822 15.8966 30.1611 15.9587 30.2392 16.0219C30.3172 16.085 30.3945 16.1491 30.471 16.2142C30.5475 16.2793 30.6232 16.3453 30.6981 16.4123C30.773 16.4792 30.847 16.5471 30.9203 16.6158C30.9935 16.6846 31.0659 16.7543 31.1374 16.8249C31.2088 16.8955 31.2794 16.9669 31.3492 17.0392C31.4189 17.1116 31.4878 17.1848 31.5557 17.2588C31.6236 17.3329 31.6907 17.4078 31.7568 17.4835C31.8229 17.5592 31.888 17.6357 31.9522 17.713C32.0164 17.7903 32.0797 17.8684 32.142 17.9473C32.2043 18.0263 32.2656 18.1059 32.3259 18.1863C32.3862 18.2668 32.4455 18.3479 32.5039 18.4298C32.5622 18.5117 32.6195 18.5943 32.6758 18.6776C32.7321 18.7609 32.7874 18.8449 32.8416 18.9296C32.8958 19.0143 32.949 19.0997 33.0011 19.1857C33.0532 19.2717 33.1043 19.3583 33.1543 19.4456C34.8107 22.3064 35.1183 25.7102 34.2837 28.8852C35.0582 27.9834 35.9299 27.5653 37.0544 27.2548C37.5049 27.1305 37.951 27.0062 38.3528 26.7577C39.2482 26.204 39.6106 25.2461 39.8447 24.2664C40.0916 27.891 39.2357 31.2131 37.356 34.3047C36.985 34.9149 36.5641 35.4936 36.1494 36.0742L29.2502 36.0794C27.8058 36.0762 26.3614 36.0846 24.917 36.1047C25.7149 35.9332 26.5103 35.6177 27.2407 35.2539C27.3244 35.212 27.4075 35.169 27.4901 35.125C27.5727 35.081 27.6548 35.036 27.7363 34.99C27.8178 34.9439 27.8988 34.8969 27.9791 34.8489C28.0595 34.8008 28.1393 34.7518 28.2184 34.7018C28.2976 34.6518 28.3761 34.6008 28.454 34.5488C28.5319 34.4969 28.6092 34.444 28.6858 34.3901C28.7624 34.3363 28.8384 34.2815 28.9137 34.2257C28.9889 34.17 29.0635 34.1133 29.1374 34.0558C29.2112 33.9982 29.2844 33.9397 29.3568 33.8803C29.4293 33.8209 29.501 33.7606 29.5719 33.6995C29.6429 33.6384 29.7131 33.5763 29.7826 33.5134C29.852 33.4505 29.9207 33.3868 29.9886 33.3222C30.0564 33.2576 30.1235 33.1921 30.1898 33.1259C30.2561 33.0596 30.3215 32.9926 30.3862 32.9247C30.4508 32.8569 30.5146 32.7882 30.5776 32.7187C30.6405 32.6492 30.7026 32.579 30.7638 32.5081C30.825 32.4371 30.8854 32.3653 30.9448 32.2929C31.0043 32.2204 31.0629 32.1472 31.1205 32.0733C31.1782 31.9993 31.235 31.9247 31.2908 31.8494C31.3467 31.774 31.4016 31.698 31.4555 31.6213C31.5095 31.5447 31.5626 31.4674 31.6147 31.3893C31.6667 31.3113 31.7179 31.2327 31.768 31.1534C31.8181 31.0741 31.8673 30.9943 31.9155 30.9138C31.9637 30.8333 32.0109 30.7523 32.0571 30.6706C32.1033 30.5889 32.1485 30.5067 32.1927 30.424C32.2369 30.3412 32.2801 30.2579 32.3222 30.1741C32.3644 30.0902 32.4055 30.0059 32.4456 29.9211C32.4856 29.8362 32.5247 29.7509 32.5627 29.6651C32.6006 29.5793 32.6376 29.493 32.6734 29.4063C32.7093 29.3195 32.7441 29.2324 32.7779 29.1448C32.8116 29.0572 32.8443 28.9692 32.8759 28.8808C32.9074 28.7924 32.9379 28.7037 32.9673 28.6145C32.9965 28.525 33.0246 28.4351 33.0517 28.3448C33.0787 28.2546 33.1047 28.1641 33.1296 28.0732C33.1544 27.9823 33.1782 27.8912 33.2008 27.7997C33.2235 27.7083 33.2451 27.6166 33.2655 27.5246C33.2859 27.4327 33.3053 27.3405 33.3235 27.248C33.3418 27.1556 33.3589 27.063 33.3748 26.9701C33.3908 26.8772 33.4057 26.7842 33.4194 26.691C33.4332 26.5978 33.4458 26.5044 33.4573 26.4109C33.4688 26.3174 33.4792 26.2237 33.4884 26.1299C33.4976 26.0361 33.5057 25.9423 33.5127 25.8483C33.5197 25.7543 33.5255 25.6603 33.5302 25.5662C33.5349 25.4721 33.5385 25.3779 33.5409 25.2837C33.5434 25.1895 33.5446 25.0953 33.5448 25.001C33.5449 24.9068 33.544 24.8126 33.5419 24.7184C33.5397 24.6242 33.5365 24.53 33.5321 24.4359C33.5277 24.3418 33.5222 24.2477 33.5155 24.1537C33.5088 24.0597 33.501 23.9658 33.4921 23.872C33.4832 23.7782 33.4732 23.6845 33.4619 23.5909C33.4508 23.4974 33.4384 23.404 33.425 23.3107C33.4116 23.2174 33.397 23.1244 33.3813 23.0315C33.3657 22.9386 33.3489 22.8459 33.3309 22.7533C33.313 22.6609 33.294 22.5686 33.2738 22.4765C33.2537 22.3845 33.2325 22.2927 33.2101 22.2012C33.1877 22.1097 33.1643 22.0185 33.1397 21.9275C33.1152 21.8366 33.0895 21.7459 33.0627 21.6556C33.036 21.5653 33.0082 21.4753 32.9792 21.3857C32.9503 21.296 32.9203 21.2067 32.8893 21.1178C32.8582 21.0289 32.826 20.9404 32.7928 20.8523C32.7596 20.7641 32.7254 20.6764 32.69 20.5891C32.6547 20.5018 32.6183 20.4149 32.5809 20.3286C32.5435 20.2421 32.505 20.1562 32.4656 20.0707C32.4261 19.9852 32.3855 19.9002 32.344 19.8157C32.3026 19.7328 32.2603 19.6504 32.2171 19.5685C32.1738 19.4866 32.1296 19.4052 32.0845 19.3243C32.0393 19.2434 31.9932 19.163 31.9462 19.0832C31.8993 19.0034 31.8514 18.9241 31.8025 18.8454C31.7537 18.7667 31.7039 18.6886 31.6533 18.611C31.6027 18.5335 31.5512 18.4565 31.4988 18.3802C31.4464 18.3038 31.3931 18.2281 31.3389 18.153C31.2847 18.0779 31.2297 18.0034 31.1738 17.9296C31.118 17.8558 31.0612 17.7826 31.0037 17.7101C30.9461 17.6376 30.8877 17.5657 30.8285 17.4946C30.7693 17.4235 30.7092 17.353 30.6484 17.2833C30.5875 17.2135 30.5259 17.1445 30.4634 17.0762C30.401 17.0079 30.3377 16.9403 30.2737 16.8735C30.2097 16.8066 30.1449 16.7405 30.0794 16.6752C30.0139 16.6099 29.9476 16.5453 29.8806 16.4816C29.8136 16.4178 29.7458 16.3548 29.6773 16.2925C29.6089 16.2303 29.5397 16.1689 29.4698 16.1083C29.3999 16.0477 29.3293 15.988 29.258 15.929C29.1867 15.8701 29.1148 15.8119 29.0422 15.7547C28.9696 15.6974 28.8963 15.6409 28.8224 15.5854C28.7484 15.5298 28.6739 15.4751 28.5987 15.4212C28.5235 15.3674 28.4477 15.3145 28.3713 15.2624C28.2949 15.2103 28.2179 15.1592 28.1403 15.1089C28.0627 15.0586 27.9845 15.0092 27.9058 14.9607C27.8271 14.9123 27.7478 14.8648 27.668 14.8182C27.5881 14.7716 27.5078 14.7259 27.4269 14.6811C27.3461 14.6364 27.2646 14.5926 27.1827 14.5497C27.1008 14.5069 27.0185 14.465 26.9356 14.424C26.8527 14.3831 26.7694 14.3432 26.6856 14.3042C26.6019 14.2652 26.5176 14.2272 26.433 14.1902C26.3483 14.1531 26.2633 14.1171 26.1778 14.082C26.0923 14.047 26.0064 14.0129 25.9201 13.9799C25.5295 13.8272 25.1381 13.6986 24.7322 13.5941C24.4951 13.5331 24.24 13.494 24.0094 13.4149L23.9612 13.398Z" fill="#00A363"/>
<path d="M34.161 31.5016C35.1784 31.4227 36.5008 31.7573 37.3423 32.3394C36.7839 32.1059 36.2325 31.9396 35.6272 31.8842C34.2841 31.7613 32.9363 32.1141 31.8948 32.9868C31.1619 33.6495 30.7914 34.3908 30.437 35.2975C30.5624 34.4154 30.8829 33.4924 31.4636 32.8061C32.1671 31.9747 33.0971 31.5902 34.161 31.5016Z" fill="#FEFEFE"/>
<path d="M12.4747 27.886L24.7245 27.8769L30.6687 27.8865C30.4699 28.3141 30.2081 28.6531 29.8345 28.943C28.6693 29.8471 27.1346 30.1345 25.7565 29.5942C25.1062 29.3392 24.511 28.9696 23.8483 28.7419C23.7463 28.7077 23.6434 28.6762 23.5397 28.6474C23.436 28.6186 23.3316 28.5926 23.2266 28.5692C23.1215 28.5459 23.0159 28.5255 22.9098 28.5078C22.8036 28.4901 22.6971 28.4752 22.5902 28.463C22.4833 28.4509 22.3761 28.4416 22.2687 28.4352C22.1613 28.4288 22.0538 28.4252 21.9462 28.4244C21.8386 28.4236 21.7311 28.4257 21.6236 28.4306C21.5162 28.4355 21.4089 28.4432 21.3018 28.4538C20.6862 28.5139 20.0909 28.675 19.5184 28.9076C18.2377 29.428 17.2571 30.0728 15.8005 29.8829C14.5465 29.7195 13.5554 28.9745 12.8043 27.9941C13.2133 28.8277 13.9402 29.5584 14.7599 29.9879C15.8665 30.5677 16.9419 30.5745 18.1142 30.2079C19.1534 29.8236 20.1644 29.2927 21.278 29.1696C21.441 29.1514 21.6046 29.1409 21.7686 29.138C21.9326 29.135 22.0964 29.1397 22.26 29.152C22.4236 29.1643 22.5862 29.1842 22.748 29.2116C22.9098 29.2391 23.0699 29.274 23.2284 29.3163C24.9841 29.7919 26.3605 30.9551 28.2765 30.2504C29.4005 29.8371 30.2619 28.9687 30.7585 27.8903L31.1724 27.8896C31.1488 28.0074 31.1223 28.1246 31.0928 28.2411C31.0634 28.3576 31.0312 28.4732 30.9961 28.5881C30.961 28.703 30.9231 28.817 30.8824 28.93C30.8417 29.043 30.7983 29.1549 30.752 29.2657C30.7058 29.3766 30.6569 29.4863 30.6053 29.5947C30.5537 29.7031 30.4995 29.8102 30.4426 29.916C30.3857 30.0217 30.3263 30.1259 30.2643 30.2287C30.2023 30.3315 30.1378 30.4327 30.0709 30.5323C30.026 30.5994 29.9804 30.666 29.9339 30.732C29.8875 30.798 29.8402 30.8634 29.7921 30.9283C29.7441 30.9931 29.6952 31.0574 29.6456 31.121C29.596 31.1847 29.5456 31.2477 29.4944 31.3101C29.4433 31.3725 29.3914 31.4343 29.3387 31.4954C29.2861 31.5566 29.2327 31.617 29.1785 31.6769C29.1244 31.7367 29.0696 31.7958 29.014 31.8543C28.9584 31.9128 28.9021 31.9706 28.8451 32.0277C28.7882 32.0848 28.7305 32.1412 28.6721 32.1968C28.6138 32.2525 28.5548 32.3075 28.4951 32.3617C28.4354 32.4159 28.375 32.4694 28.3141 32.5222C28.2531 32.5749 28.1914 32.6269 28.1292 32.6782C28.0669 32.7294 28.0041 32.7798 27.9406 32.8295C27.8771 32.8792 27.813 32.9282 27.7483 32.9763C27.6836 33.0244 27.6184 33.0717 27.5526 33.1182C27.4867 33.1647 27.4203 33.2104 27.3534 33.2553C27.2864 33.3002 27.219 33.3442 27.1509 33.3875C27.0829 33.4307 27.0144 33.4731 26.9453 33.5146C26.8763 33.5562 26.8068 33.5969 26.7367 33.6367C26.6666 33.6766 26.5961 33.7155 26.5252 33.7536C26.4542 33.7917 26.3827 33.8289 26.3108 33.8653C26.2389 33.9017 26.1666 33.9371 26.0938 33.9717C26.0211 34.0063 25.9479 34.04 25.8743 34.0727C25.8007 34.1055 25.7268 34.1374 25.6524 34.1684C25.578 34.1993 25.5033 34.2294 25.4282 34.2585C25.3532 34.2876 25.2777 34.3158 25.2019 34.3431C25.1262 34.3704 25.0501 34.3967 24.9736 34.4221C24.8973 34.4475 24.8205 34.472 24.7435 34.4955C24.6665 34.5191 24.5892 34.5416 24.5116 34.5632C24.4341 34.5849 24.3563 34.6056 24.2782 34.6253C24.2002 34.645 24.1219 34.6637 24.0433 34.6815C23.9648 34.6993 23.8861 34.7161 23.8071 34.732C21.1787 35.2538 18.4399 34.597 16.228 33.1102C14.4694 31.9281 12.8958 30.0054 12.4747 27.886Z" fill="#FFD059"/>
<path d="M21.5452 29.8866C23.0039 29.762 24.3165 30.7089 25.6675 31.1151C26.9723 31.5073 28.0005 31.2521 29.1647 30.6163C29.0847 30.6951 29.0006 30.7671 28.9125 30.8368C27.7884 31.7267 26.4511 31.9959 25.0732 31.5968C24.039 31.2972 23.3875 30.9394 22.2557 30.8047C20.8474 30.5657 19.4357 31.4946 18.0879 31.6983C16.7468 31.901 15.5773 31.4617 14.5073 30.6656C16.6998 31.7371 17.6724 31.3236 19.7788 30.4272C20.3486 30.1847 20.9269 29.9608 21.5452 29.8866Z" fill="#FEFEFE"/>
<path d="M60.3506 25.4418L59.2176 22.1165H54.0711L52.8997 25.4418L54.4936 25.8341V26.6374H50V25.8341L51.5747 25.4418L56.1835 13H57.9694L62.5206 25.4418L64.0569 25.8341V26.6374H58.7759V25.8341L60.3506 25.4418ZM56.702 14.6626L54.4552 21.033H58.8528L56.7788 14.6626H56.702Z" fill="#048452"/>
<path d="M66.1443 25.5165V17.6703L64.6657 17.3154V16.5494H67.431L67.8534 18.4176H67.9303C68.3143 17.7824 68.8328 17.2842 69.4857 16.9231C70.1386 16.5494 70.8364 16.3626 71.5789 16.3626C72.6415 16.3626 73.4288 16.6989 73.9409 17.3714C74.197 17.7201 74.3762 18.2121 74.4786 18.8473C74.5938 19.47 74.6514 20.3168 74.6514 21.3879V25.5165L76.1301 25.8714V26.6374H71.5021V25.8714L72.7887 25.5165V21.3505C72.7887 20.541 72.7631 19.937 72.7119 19.5385C72.6735 19.1399 72.5967 18.8286 72.4815 18.6044C72.3278 18.3055 72.1038 18.0813 71.8093 17.9319C71.5277 17.77 71.1884 17.689 70.7916 17.689C70.049 17.689 69.4089 17.9194 68.8712 18.3802C68.3463 18.841 68.0583 19.5571 68.0071 20.5286V25.5165L69.2937 25.8714V26.6374H64.6657V25.8714L66.1443 25.5165Z" fill="#048452"/>
<path d="M78.7278 25.5165V17.6703L77.2492 17.3154V16.5494H80.0144L80.4369 18.4176H80.5137C80.8978 17.7824 81.4163 17.2842 82.0692 16.9231C82.7221 16.5494 83.4198 16.3626 84.1624 16.3626C85.225 16.3626 86.0123 16.6989 86.5244 17.3714C86.7804 17.7201 86.9597 18.2121 87.0621 18.8473C87.1773 19.47 87.2349 20.3168 87.2349 21.3879V25.5165L88.7136 25.8714V26.6374H84.0856V25.8714L85.3722 25.5165V21.3505C85.3722 20.541 85.3466 19.937 85.2954 19.5385C85.257 19.1399 85.1801 18.8286 85.0649 18.6044C84.9113 18.3055 84.6873 18.0813 84.3928 17.9319C84.1112 17.77 83.7719 17.689 83.375 17.689C82.6325 17.689 81.9924 17.9194 81.4547 18.3802C80.9298 18.841 80.6417 19.5571 80.5905 20.5286V25.5165L81.8772 25.8714V26.6374H77.2492V25.8714L78.7278 25.5165Z" fill="#048452"/>
<path d="M89.871 24.4516C89.871 23.4802 90.3383 22.7143 91.2729 22.1538C92.2074 21.5934 93.7565 21.1575 95.9201 20.8462C95.8689 20.1114 95.7985 19.5385 95.7089 19.1275C95.6192 18.7165 95.504 18.3864 95.3632 18.1374C95.184 17.8136 94.9343 17.5769 94.6143 17.4275C94.2942 17.2656 93.9485 17.1846 93.5773 17.1846C93.2188 17.1846 92.8923 17.2469 92.5979 17.3714C92.3163 17.496 92.1242 17.6641 92.0218 17.8758C92.201 18.0004 92.3291 18.1623 92.4059 18.3615C92.4955 18.5608 92.5403 18.7476 92.5403 18.922C92.5403 19.2333 92.4315 19.4824 92.2138 19.6692C92.009 19.8436 91.753 19.9308 91.4457 19.9308C91.1385 19.9308 90.8824 19.8311 90.6776 19.6319C90.4855 19.4326 90.3895 19.1524 90.3895 18.7912C90.3895 18.2681 90.5751 17.826 90.9464 17.4648C91.3177 17.1037 91.785 16.8297 92.3483 16.6429C92.9244 16.456 93.5005 16.3626 94.0766 16.3626C94.6015 16.3626 95.0815 16.4436 95.5168 16.6055C95.9649 16.7549 96.3426 16.9791 96.6498 17.278C97.4436 18.0502 97.8404 19.4201 97.8404 21.3879V24.0967C97.8404 24.707 97.8788 25.1304 97.9557 25.367C98.0453 25.6037 98.2309 25.722 98.5125 25.722H99.3767V26.2824C98.4549 26.6436 97.738 26.8242 97.2259 26.8242C96.829 26.8242 96.5602 26.6872 96.4194 26.4132C96.2914 26.1267 96.2273 25.585 96.2273 24.7879H96.1505C95.7537 25.4231 95.2288 25.9212 94.5759 26.2824C93.9229 26.6436 93.2188 26.8242 92.4635 26.8242C91.6569 26.8242 91.0232 26.6125 90.5623 26.189C90.1015 25.7656 89.871 25.1864 89.871 24.4516ZM93.27 25.7407C93.6285 25.7407 93.9998 25.6535 94.3838 25.4791C94.7807 25.2923 95.1135 25.037 95.3824 24.7132C95.5872 24.4641 95.7345 24.1714 95.8241 23.8352C95.9265 23.4864 95.9777 23.0817 95.9777 22.6209C95.9777 22.4092 95.9713 22.2037 95.9585 22.0044C95.9457 21.7927 95.9265 21.5934 95.9009 21.4066C94.8639 21.6059 94.051 21.8238 93.4621 22.0604C92.8732 22.2846 92.4571 22.5586 92.2138 22.8824C91.9706 23.1938 91.849 23.5861 91.849 24.0593C91.849 24.5949 91.9706 25.0121 92.2138 25.311C92.4699 25.5974 92.8219 25.7407 93.27 25.7407Z" fill="#048452"/>
<path d="M103.277 28.8791L105.14 29.2341V30H99.9357V29.2341L101.414 28.8791V17.6703L99.9357 17.3154V16.5494H102.701L102.989 17.9879C103.399 17.3652 103.86 16.9418 104.372 16.7176C104.897 16.481 105.485 16.3626 106.138 16.3626C106.791 16.3626 107.38 16.456 107.905 16.6429C108.443 16.8297 108.878 17.1286 109.211 17.5396C109.595 18.0128 109.896 18.5857 110.113 19.2582C110.344 19.9183 110.459 20.6344 110.459 21.4066C110.459 22.2037 110.331 22.9571 110.075 23.667C109.832 24.3645 109.499 24.9498 109.077 25.4231C108.36 26.2326 107.329 26.6374 105.985 26.6374C105.434 26.6374 104.935 26.5377 104.487 26.3385C104.052 26.1267 103.648 25.7656 103.277 25.2549V28.8791ZM103.258 21.4253C103.258 22.1601 103.315 22.8015 103.431 23.3495C103.546 23.8974 103.712 24.3396 103.93 24.6758C104.135 24.9872 104.384 25.23 104.679 25.4044C104.986 25.5788 105.377 25.6659 105.85 25.6659C106.286 25.6659 106.663 25.5912 106.983 25.4418C107.316 25.2799 107.585 25.0619 107.79 24.7879C108.02 24.4766 108.187 24.0407 108.289 23.4802C108.392 22.9198 108.443 22.2784 108.443 21.556C108.443 20.8212 108.385 20.1861 108.27 19.6505C108.155 19.115 107.988 18.6729 107.771 18.3242C107.566 18.0004 107.31 17.7575 107.003 17.5956C106.708 17.4212 106.318 17.3341 105.831 17.3341C105.396 17.3341 105.012 17.4088 104.679 17.5582C104.359 17.6952 104.109 17.907 103.93 18.1934C103.725 18.5297 103.559 18.9718 103.431 19.5198C103.315 20.0553 103.258 20.6905 103.258 21.4253Z" fill="#048452"/>
<path d="M115.051 16.5494V21.8363C115.051 22.6333 115.071 23.2374 115.109 23.6484C115.16 24.0469 115.243 24.3582 115.359 24.5824C115.5 24.8813 115.711 25.1117 115.992 25.2736C116.274 25.4231 116.601 25.4978 116.972 25.4978C117.317 25.4978 117.65 25.4355 117.97 25.311C118.29 25.1864 118.572 25.0183 118.815 24.8066C119.34 24.3458 119.628 23.6297 119.679 22.6582V17.6703L118.009 17.3154V16.5494H121.542V25.5165L123.021 25.8714V26.6374L120.044 26.8242L119.833 24.7692H119.756C119.385 25.4044 118.879 25.9088 118.239 26.2824C117.599 26.6436 116.914 26.8242 116.184 26.8242C115.698 26.8242 115.25 26.737 114.84 26.5626C114.443 26.3758 114.13 26.1267 113.899 25.8154C113.656 25.4667 113.477 24.9747 113.362 24.3396C113.246 23.7044 113.189 22.8575 113.189 21.7989V17.6703L111.902 17.3154V16.5494H115.051Z" fill="#048452"/>
<path d="M129.969 17.633C129.918 17.5956 129.854 17.5707 129.777 17.5582C129.713 17.5333 129.649 17.5209 129.585 17.5209C129.431 17.5209 129.265 17.5894 129.086 17.7264C128.906 17.8634 128.733 18.0502 128.567 18.2868C128.401 18.511 128.247 18.7725 128.106 19.0714C127.927 19.4949 127.786 19.9619 127.684 20.4725C127.581 20.9707 127.53 21.4875 127.53 22.0231V25.5165L129.604 25.8714V26.6374H124.189V25.8714L125.667 25.5165V17.6703L124.189 17.3154V16.5494H126.954L127.376 19.0154H127.453C127.748 18.1685 128.145 17.5147 128.644 17.0538C129.143 16.593 129.694 16.3626 130.295 16.3626C130.795 16.3626 131.211 16.5183 131.544 16.8297C131.876 17.1286 132.043 17.5333 132.043 18.044C132.043 18.4176 131.94 18.7165 131.736 18.9407C131.544 19.1524 131.281 19.2582 130.948 19.2582C130.615 19.2582 130.353 19.1586 130.161 18.9593C129.969 18.7476 129.873 18.4736 129.873 18.1374C129.873 18.0626 129.879 17.9941 129.892 17.9319C129.905 17.8571 129.93 17.7575 129.969 17.633Z" fill="#048452"/>
<path d="M134.463 25.5165V17.6703L132.984 17.3154V16.5494H135.749L136.172 18.4176H136.249C136.633 17.7824 137.151 17.2842 137.804 16.9231C138.457 16.5494 139.155 16.3626 139.897 16.3626C140.96 16.3626 141.747 16.6989 142.259 17.3714C142.515 17.7201 142.694 18.2121 142.797 18.8473C142.912 19.47 142.97 20.3168 142.97 21.3879V25.5165L144.448 25.8714V26.6374H139.82V25.8714L141.107 25.5165V21.3505C141.107 20.541 141.081 19.937 141.03 19.5385C140.992 19.1399 140.915 18.8286 140.8 18.6044C140.646 18.3055 140.422 18.0813 140.128 17.9319C139.846 17.77 139.507 17.689 139.11 17.689C138.367 17.689 137.727 17.9194 137.19 18.3802C136.665 18.841 136.377 19.5571 136.325 20.5286V25.5165L137.612 25.8714V26.6374H132.984V25.8714L134.463 25.5165Z" fill="#048452"/>
<path d="M145.606 24.4516C145.606 23.4802 146.073 22.7143 147.008 22.1538C147.942 21.5934 149.491 21.1575 151.655 20.8462C151.604 20.1114 151.533 19.5385 151.444 19.1275C151.354 18.7165 151.239 18.3864 151.098 18.1374C150.919 17.8136 150.669 17.5769 150.349 17.4275C150.029 17.2656 149.683 17.1846 149.312 17.1846C148.954 17.1846 148.627 17.2469 148.333 17.3714C148.051 17.496 147.859 17.6641 147.757 17.8758C147.936 18.0004 148.064 18.1623 148.141 18.3615C148.23 18.5608 148.275 18.7476 148.275 18.922C148.275 19.2333 148.166 19.4824 147.949 19.6692C147.744 19.8436 147.488 19.9308 147.181 19.9308C146.873 19.9308 146.617 19.8311 146.412 19.6319C146.22 19.4326 146.124 19.1524 146.124 18.7912C146.124 18.2681 146.31 17.826 146.681 17.4648C147.052 17.1037 147.52 16.8297 148.083 16.6429C148.659 16.456 149.235 16.3626 149.811 16.3626C150.336 16.3626 150.816 16.4436 151.252 16.6055C151.7 16.7549 152.077 16.9791 152.385 17.278C153.178 18.0502 153.575 19.4201 153.575 21.3879V24.0967C153.575 24.707 153.614 25.1304 153.69 25.367C153.78 25.6037 153.966 25.722 154.247 25.722H155.112V26.2824C154.19 26.6436 153.473 26.8242 152.961 26.8242C152.564 26.8242 152.295 26.6872 152.154 26.4132C152.026 26.1267 151.962 25.585 151.962 24.7879H151.885C151.488 25.4231 150.964 25.9212 150.311 26.2824C149.658 26.6436 148.954 26.8242 148.198 26.8242C147.392 26.8242 146.758 26.6125 146.297 26.189C145.836 25.7656 145.606 25.1864 145.606 24.4516ZM149.005 25.7407C149.363 25.7407 149.735 25.6535 150.119 25.4791C150.516 25.2923 150.848 25.037 151.117 24.7132C151.322 24.4641 151.469 24.1714 151.559 23.8352C151.661 23.4864 151.713 23.0817 151.713 22.6209C151.713 22.4092 151.706 22.2037 151.693 22.0044C151.681 21.7927 151.661 21.5934 151.636 21.4066C150.599 21.6059 149.786 21.8238 149.197 22.0604C148.608 22.2846 148.192 22.5586 147.949 22.8824C147.705 23.1938 147.584 23.5861 147.584 24.0593C147.584 24.5949 147.705 25.0121 147.949 25.311C148.205 25.5974 148.557 25.7407 149.005 25.7407Z" fill="#048452"/>
<path d="M156.285 25.6473C156.285 25.2736 156.394 24.981 156.611 24.7692C156.829 24.5451 157.124 24.433 157.495 24.433C157.866 24.433 158.161 24.5451 158.378 24.7692C158.609 24.9934 158.724 25.2861 158.724 25.6473C158.724 26.0084 158.609 26.2949 158.378 26.5066C158.161 26.7183 157.866 26.8242 157.495 26.8242C157.111 26.8242 156.81 26.7245 156.592 26.5253C156.387 26.3136 156.285 26.0209 156.285 25.6473Z" fill="#048452"/>
<path d="M170.02 25.4418L168.887 22.1165H163.74L162.569 25.4418L164.163 25.8341V26.6374H159.669V25.8341L161.244 25.4418L165.853 13H167.639L172.19 25.4418L173.726 25.8341V26.6374H168.445V25.8341L170.02 25.4418ZM166.371 14.6626L164.125 21.033H168.522L166.448 14.6626H166.371Z" fill="#048452"/>
<path d="M178.195 14.3824V25.4418L180 25.8341V26.6374H174.469V25.8341L176.275 25.4418V14.3824L174.469 13.9901V13.1868H180V13.9901L178.195 14.3824Z" fill="#048452"/>
</svg>
