<svg width="50" height="37" viewBox="0 0 50 37" fill="none" xmlns="http://www.w3.org/2000/svg">
<path d="M3.12887 24.8671H13.6248C14.0006 24.8671 14.3069 25.1749 14.3069 25.5526V25.7764H16.3571C16.3233 25.6665 16.2915 25.5566 16.2577 25.4486C16.1941 25.2408 16.2319 25.0149 16.3591 24.8391C16.4884 24.6632 16.6912 24.5593 16.908 24.5593L47.1215 24.5613C47.3383 24.5613 47.5431 24.6652 47.6704 24.8411C47.7996 25.0169 47.8374 25.2428 47.7718 25.4506C47.6405 25.8743 47.5093 26.326 47.3721 26.8056C46.2306 30.7448 44.6695 36.1387 39.7795 36.1387L24.2522 36.1367C20.6647 36.1367 18.8691 33.2348 17.7155 30.1353H14.307V30.3592C14.307 30.7369 14.0007 31.0447 13.6249 31.0447H3.12895C1.43465 31.0447 0.0545006 29.6577 0.0545006 27.9549C0.0545006 26.2521 1.43451 24.8671 3.12887 24.8671ZM17.9678 26.422C19.0437 30.1392 20.384 34.7661 24.25 34.7661H39.7793C43.6453 34.7661 44.9858 30.1395 46.0615 26.422C46.1092 26.2561 46.157 26.0922 46.2027 25.9343L17.827 25.9323C17.8727 26.0922 17.9201 26.2541 17.9678 26.422ZM14.3068 28.7623H17.244C17.069 28.2127 16.9079 27.6691 16.7568 27.1475H14.3068L14.3068 28.7623ZM3.12866 29.6736H12.9424V26.2381H3.12866C2.18603 26.2381 1.41842 27.0095 1.41842 27.9568C1.41842 28.9022 2.18603 29.6736 3.12866 29.6736ZM45.8943 9.71598L44.4347 10.7732C44.6236 11.2229 44.735 11.7125 44.7409 12.2062C44.7568 13.3593 44.204 14.2587 43.2236 14.6724C39.9105 16.0794 37.9061 19.5608 38.3455 23.1403C38.3832 23.4441 38.2142 23.7359 37.9338 23.8558C37.8483 23.8918 37.7568 23.9098 37.6673 23.9098C37.4645 23.9098 37.2676 23.8198 37.1364 23.6539C36.3131 22.6247 35.7205 21.4495 35.3764 20.1625C34.7878 17.9561 35.0105 15.6118 36.0009 13.5635C36.9773 11.545 38.6338 9.93213 40.6643 9.0268C41.3384 8.72702 42.0583 8.70904 42.7463 8.97884C43.0904 9.11274 43.4086 9.33858 43.687 9.62436L45.0969 8.6031C45.4032 8.38126 45.8287 8.45121 46.0495 8.75899C46.2682 9.06676 46.2006 9.49414 45.8943 9.71598ZM42.975 10.9231C42.971 10.9151 42.9651 10.9091 42.9611 10.9011C42.7642 10.5974 42.5156 10.3615 42.2492 10.2556C42.0841 10.1897 41.921 10.1577 41.758 10.1577C41.577 10.1577 41.396 10.1977 41.2151 10.2796C37.558 11.9104 35.6548 15.9177 36.6909 19.8066C36.7804 20.1424 36.8898 20.4681 37.0171 20.7839C37.4904 17.5662 39.6063 14.7186 42.6889 13.4093C43.1502 13.2135 43.3809 12.8157 43.373 12.2242C43.369 11.7725 43.2136 11.2989 42.975 10.9231ZM35.6767 11.119C35.3187 11.2149 34.9548 11.2629 34.5929 11.2629C33.877 11.2629 33.169 11.075 32.5306 10.7053C31.5721 10.1497 30.886 9.25033 30.5997 8.17514C30.194 6.65622 30.6832 5.10737 31.7392 4.0901C31.415 3.90823 31.1068 3.66841 30.8264 3.37065C30.5659 3.09685 30.5778 2.66118 30.8522 2.40137C31.1247 2.13956 31.5582 2.15155 31.8167 2.42735C32.1249 2.75312 32.473 2.97096 32.819 3.06489L32.469 1.75185C32.3715 1.38612 32.5883 1.0104 32.9522 0.912473C33.3161 0.814542 33.69 1.03039 33.7874 1.39612L34.1374 2.70916C34.39 2.45335 34.5829 2.08963 34.6883 1.65193C34.7758 1.2842 35.1437 1.05834 35.5116 1.1463C35.8775 1.23424 36.1042 1.60397 36.0147 1.97371C35.9192 2.37142 35.7721 2.73516 35.5832 3.05493C37.0051 3.40667 38.2002 4.50386 38.6039 6.02079C39.1965 8.23716 37.8821 10.5234 35.6767 11.119ZM37.2875 6.37444C36.9554 5.12735 35.8298 4.30394 34.6009 4.30394C34.3642 4.30394 34.1216 4.33391 33.8829 4.39987C32.4034 4.79958 31.5224 6.33244 31.9201 7.81938C32.113 8.54088 32.5724 9.1444 33.2167 9.51615C33.8591 9.88787 34.6088 9.98781 35.3247 9.79194C36.8022 9.39423 37.6832 7.86139 37.2875 6.37444ZM21.4319 20.698C21.4319 21.8172 20.9983 22.8684 20.2108 23.6598C20.0836 23.7878 19.9086 23.8617 19.7276 23.8617C19.5466 23.8617 19.3736 23.7897 19.2444 23.6598L14.3185 18.7094C14.052 18.4416 14.052 18.0079 14.3185 17.7402C15.106 16.9487 16.1521 16.5131 17.2637 16.5131H17.2657C18.3773 16.5131 19.4214 16.9487 20.2069 17.7402C20.9983 18.5296 21.4319 19.5808 21.4319 20.698ZM19.2463 18.7114L19.2443 18.7094C18.7173 18.1778 18.0153 17.884 17.2676 17.884H17.2657C16.7506 17.884 16.2554 18.0239 15.8259 18.2837L19.6679 22.1449C19.9285 21.7113 20.0657 21.2136 20.0657 20.696C20.0677 19.9466 19.7753 19.241 19.2463 18.7114ZM45.3968 23.5439C45.2695 23.6718 45.0945 23.7458 44.9136 23.7458C44.7326 23.7458 44.5596 23.6738 44.4303 23.5439L42.0738 21.1756C41.8073 20.9078 41.8073 20.4741 42.0738 20.2064L43.4997 18.7734C43.0681 17.952 43.1894 16.9447 43.8695 16.2632C44.2712 15.8595 44.8062 15.6377 45.3749 15.6377C45.9437 15.6377 46.4786 15.8595 46.8803 16.2632L49.3184 18.7135C49.7241 19.1152 49.9448 19.6528 49.9448 20.2264C49.9448 20.798 49.7241 21.3356 49.3243 21.7392C48.9246 22.1429 48.3976 22.3668 47.8408 22.3668H47.8388C47.4828 22.3668 47.1368 22.2789 46.8246 22.111L45.3968 23.5439ZM47.8369 20.9957H47.8389C48.0318 20.9957 48.2107 20.9178 48.3579 20.7699C48.5011 20.626 48.5806 20.4322 48.5806 20.2263C48.5806 20.0205 48.5011 19.8266 48.3579 19.6827L45.9198 17.2325C45.7766 17.0886 45.5837 17.0086 45.3789 17.0086C45.1741 17.0086 44.9812 17.0886 44.838 17.2325C44.482 17.5882 44.5894 18.0698 44.8797 18.3616C45.1462 18.6294 45.1462 19.0631 44.8797 19.3309L43.5255 20.6919L44.9175 22.0909L46.2718 20.7299C46.405 20.596 46.58 20.528 46.755 20.528C46.93 20.528 47.105 20.596 47.2383 20.7299C47.4053 20.8998 47.6201 20.9957 47.8369 20.9957ZM42.3163 7.14189C41.1291 7.14189 40.1626 6.17061 40.1626 4.97744C40.1626 3.78428 41.129 2.815 42.3163 2.815C43.5055 2.815 44.47 3.78428 44.47 4.97744C44.47 6.17061 43.5035 7.14189 42.3163 7.14189ZM42.3163 4.18406C41.8808 4.18406 41.5268 4.5398 41.5268 4.9755C41.5268 5.41318 41.8808 5.76893 42.3163 5.76893C42.7518 5.76893 43.1058 5.41319 43.1058 4.9755C43.1058 4.53982 42.7518 4.18406 42.3163 4.18406ZM30.2773 9.1005C29.0404 6.95207 26.6023 5.79692 24.0608 6.15664C23.6869 6.21061 23.4284 6.55635 23.4801 6.93207C23.5338 7.30779 23.8779 7.56761 24.2517 7.51563C26.2383 7.23384 28.1395 8.12518 29.096 9.78598C29.5991 10.6633 29.794 11.6646 29.6628 12.6819C29.6349 12.8897 29.7045 13.0996 29.8517 13.2495C30.0605 13.4633 30.2455 13.7092 30.4006 13.979C30.7824 14.6485 30.9474 15.4159 30.8719 16.1934C30.85 16.4152 30.9375 16.631 31.1045 16.7769C31.369 17.0067 31.5878 17.2765 31.7608 17.5763C32.1943 18.3318 32.2938 19.2211 32.0412 20.0825C31.7847 20.9558 31.198 21.6953 30.3906 22.165C28.7321 23.1263 26.65 22.6346 25.7491 21.0678C25.5741 20.762 25.4548 20.4342 25.3892 20.0945C25.3474 19.8747 25.2023 19.6908 25.0014 19.5989C24.2915 19.2751 23.7128 18.7495 23.327 18.078C23.1778 17.8161 23.0585 17.5324 22.975 17.2366C22.9173 17.0347 22.7721 16.8709 22.5812 16.7909C21.6366 16.3952 20.871 15.7237 20.3678 14.8483C19.7355 13.7471 19.5903 12.4501 19.9582 11.195C20.2664 10.1437 20.9048 9.22639 21.7817 8.55693L23.0246 10.7214L22.1695 12.5041C22.0065 12.8458 22.1476 13.2556 22.4877 13.4194C22.5832 13.4654 22.6846 13.4874 22.784 13.4874C23.0386 13.4874 23.2812 13.3455 23.3985 13.0997L23.8499 12.1563L24.7865 13.7851L23.9314 15.5719C23.7683 15.9136 23.9115 16.3233 24.2516 16.4872C24.347 16.5332 24.4485 16.5552 24.5459 16.5552C24.8004 16.5552 25.0431 16.4113 25.1624 16.1674L25.6138 15.2241L26.2203 16.2793L25.3632 18.064C25.2001 18.4058 25.3413 18.8155 25.6814 18.9794C25.7768 19.0254 25.8783 19.0473 25.9777 19.0473C26.2322 19.0473 26.4748 18.9055 26.5922 18.6596L27.0456 17.7163L27.8072 19.0413C27.9325 19.2611 28.1632 19.3851 28.3979 19.3851C28.5132 19.3851 28.6305 19.3551 28.7379 19.2931C29.0641 19.1033 29.1754 18.6836 28.9885 18.3558L28.2268 17.0308L29.2689 17.1087C29.6408 17.1347 29.9729 16.8529 30.0007 16.4752C30.0286 16.0975 29.7462 15.7677 29.3703 15.7397L27.4016 15.5918L26.795 14.5366L27.8351 14.6186C28.209 14.6445 28.5391 14.3627 28.5669 13.985C28.5948 13.6073 28.3144 13.2775 27.9365 13.2495L25.9678 13.1017L25.0311 11.4708L26.0732 11.5488C26.449 11.5768 26.7772 11.295 26.805 10.9172C26.8329 10.5395 26.5524 10.2097 26.1766 10.1818L24.2078 10.0339L22.6189 7.2679C22.6129 7.25791 22.609 7.24792 22.605 7.23793C22.599 7.22793 22.5931 7.21994 22.5871 7.20995L20.8669 4.2181C20.678 3.89034 20.2604 3.77842 19.9343 3.96628C19.6081 4.15614 19.4968 4.57584 19.6837 4.90358L21.0936 7.3638C19.9144 8.21719 19.0553 9.42029 18.6476 10.8093C18.1723 12.4281 18.3632 14.1089 19.1845 15.5379C19.7851 16.5831 20.672 17.4045 21.7598 17.9281C21.8632 18.2199 21.9905 18.4997 22.1416 18.7655C22.6149 19.5869 23.295 20.2484 24.1263 20.6961C24.2257 21.0638 24.3729 21.4196 24.5658 21.7553C25.4069 23.2203 26.9621 24.0317 28.5848 24.0317C29.426 24.0317 30.285 23.8138 31.0726 23.3562C32.1862 22.7106 32.9936 21.6874 33.3516 20.4743C33.7115 19.2492 33.5663 17.9781 32.9439 16.8949C32.755 16.5611 32.5223 16.2553 32.2538 15.9815C32.2817 15.0362 32.053 14.1149 31.5836 13.2935C31.4265 13.0217 31.2476 12.7699 31.0507 12.536C31.1422 11.3289 30.8779 10.1477 30.2773 9.1005ZM27.352 5.59902C26.1628 5.59902 25.1983 4.62974 25.1983 3.43657C25.1983 2.24146 26.1648 1.27213 27.352 1.27213C28.5392 1.27213 29.5057 2.24341 29.5057 3.43657C29.5077 4.62769 28.5413 5.59902 27.352 5.59902ZM27.352 2.6412C26.9165 2.6412 26.5625 2.99694 26.5625 3.43463C26.5625 3.87031 26.9165 4.22607 27.352 4.22607C27.7875 4.22607 28.1415 3.87033 28.1415 3.43463C28.1435 2.99695 27.7875 2.6412 27.352 2.6412Z" fill="#4C7C04"/>
</svg>
