<svg width="66" height="65" viewBox="0 0 66 65" fill="none" xmlns="http://www.w3.org/2000/svg">
<path d="M6.22956 43.9887C6.13171 43.8232 5.96957 43.7073 5.79344 43.6604C5.61452 43.6135 5.41603 43.6328 5.24829 43.7266L1.76216 45.7157C1.6056 45.8123 1.49658 45.964 1.45185 46.1323C1.40432 46.3061 1.42389 46.5047 1.51894 46.6703L11.2114 63.2341C11.3092 63.3997 11.4686 63.5155 11.6475 63.5624C11.8264 63.6093 12.0249 63.59 12.1926 63.4934L15.6592 61.5181C15.827 61.4243 15.9416 61.2643 15.9891 61.0877C16.0366 60.9112 16.0171 60.7181 15.922 60.5525C12.6959 55.0294 9.46138 49.5088 6.23246 43.9887L6.22956 43.9887ZM35.2088 21.9019C35.3318 21.5322 35.7371 21.3308 36.1117 21.4522C36.4863 21.5736 36.6904 21.9736 36.5674 22.3433C36.3186 23.0827 36.2823 23.8634 36.4388 24.6C36.5926 25.3255 36.9364 26.0153 37.4509 26.5891C39.008 28.0071 40.4253 29.6652 41.703 31.5633C41.963 30.8846 42.1335 30.1563 42.195 29.4004C42.4578 26.2471 40.8251 22.5861 35.9161 19.7861L35.9105 19.7833L35.9021 19.7778L35.8881 19.7695L35.8797 19.764L35.8741 19.7612L35.8713 19.7585C33.4392 18.3874 30.6911 17.8769 28.0411 18.1832C25.936 18.426 23.9232 19.1847 22.1899 20.3847C23.8952 20.4896 25.5251 20.7323 27.0794 21.1075C26.9648 20.6192 26.976 20.0978 27.1465 19.5957C27.2695 19.226 27.6749 19.0246 28.0495 19.146C28.4241 19.2674 28.6282 19.6674 28.5052 20.0371C28.3905 20.3792 28.4185 20.7378 28.5555 21.0413C28.6925 21.342 28.9385 21.5986 29.2656 21.7421C31.3175 22.4428 33.2298 23.4029 34.9993 24.6305C34.8512 23.7312 34.9183 22.7931 35.2146 21.902L35.2088 21.9019ZM52.3628 13.2863C52.5278 12.9331 52.9527 12.7786 53.3105 12.9414C53.6684 13.1042 53.8249 13.5235 53.66 13.8766C53.6152 13.9704 53.5677 14.0642 53.5174 14.1553C54.4735 13.998 55.4547 13.8877 56.464 13.827C54.7028 12.6076 52.6871 11.8655 50.6127 11.6254C47.9457 11.3164 45.1809 11.8351 42.7403 13.2283C41.1999 14.1056 39.9782 15.0684 39.0417 16.0726C38.1918 16.983 37.5712 17.9265 37.1491 18.8728C38.3009 19.5735 39.2794 20.3239 40.0984 21.1047C40.4535 20.7405 40.8141 20.3874 41.1859 20.0508C41.6081 19.3059 41.9016 18.5362 42.0666 17.75C42.2371 16.9306 42.2706 16.0781 42.1644 15.1953C42.1197 14.809 42.402 14.4587 42.7934 14.4145C43.1848 14.3704 43.5399 14.649 43.5846 15.0352C43.7048 16.0615 43.6657 17.063 43.4644 18.0341L43.4169 18.2493C45.7875 16.5581 48.435 15.3525 51.2643 14.6325C51.4879 14.4697 51.6864 14.2821 51.8597 14.0779C52.061 13.8462 52.2315 13.5786 52.3657 13.2917L52.3628 13.2863ZM44.5605 23.6569C44.8876 23.8721 44.9743 24.3108 44.7562 24.6336C44.5381 24.9563 44.0936 25.0419 43.7666 24.8267C43.378 24.5701 42.9531 24.377 42.5225 24.2528H42.5197C43.4479 26.0157 43.7638 27.8228 43.624 29.5111L43.6184 29.558C44.6975 29.4008 45.799 28.8821 46.839 27.9193C48.0299 26.8103 49.1397 25.1163 50.0428 22.7079C50.8339 20.6029 51.7816 19.24 53.2046 17.5241C53.9455 16.7075 54.7702 15.9599 55.6703 15.3005C53.3807 15.513 51.1218 16.0013 48.9804 16.8345C49.5032 16.9752 50.0064 17.1821 50.4928 17.4552C50.8339 17.6483 50.9541 18.0787 50.7612 18.4153C50.5655 18.7519 50.1294 18.8705 49.7883 18.6801C49.246 18.3767 48.6729 18.1753 48.0663 18.0842C47.4876 17.9987 46.881 18.007 46.2491 18.1146C44.3313 19.185 42.5896 20.5534 41.0716 22.1287C41.2254 22.308 41.3707 22.4901 41.5077 22.6694C41.983 22.6887 42.4582 22.7659 42.9167 22.8984C43.4898 23.0639 44.0462 23.3149 44.5578 23.6543L44.5605 23.6569ZM35.8972 18.1779C36.3781 17.1378 37.0658 16.1061 37.9884 15.1184C39.02 14.0149 40.3535 12.961 42.0224 12.0093C44.7398 10.4616 47.8121 9.88499 50.773 10.2271C51.4607 10.3071 52.1429 10.434 52.8138 10.6133C52.6545 8.15245 51.5754 5.93989 49.9176 4.30116C48.1144 2.52174 45.6235 1.42097 42.8726 1.42097C41.9752 1.42097 41.1114 1.53684 40.2894 1.75479C39.4395 1.97826 38.6316 2.31207 37.8908 2.73691C37.6783 2.8583 37.4043 2.86657 37.1751 2.73691C36.4342 2.31481 35.6263 1.97825 34.7764 1.75479C33.9545 1.53684 33.0878 1.42097 32.1932 1.42097C29.4423 1.42097 26.9515 2.52174 25.1483 4.30116C23.3451 6.08057 22.2297 8.5387 22.2297 11.2534C22.2297 12.2107 22.4897 13.2508 22.9593 14.3543C23.3842 15.3585 23.9853 16.4152 24.7177 17.5132C25.7381 17.1518 26.7976 16.9062 27.8683 16.7821C30.5689 16.4703 33.3589 16.9228 35.8918 18.1808L35.8972 18.1779ZM54.2672 11.0793C55.9418 11.7222 57.5101 12.6822 58.8744 13.954C59.372 14.4147 59.126 14.8561 58.6927 15.1017C56.9985 15.9514 55.5057 17.0963 54.27 18.4592C53.0707 19.6924 51.9804 21.5932 51.3821 23.1905C50.3953 25.817 49.1596 27.6902 47.8149 28.9426C46.4059 30.2531 44.8739 30.8876 43.3727 30.998C43.1686 31.8202 42.8303 32.6754 42.397 33.4065C41.9385 34.1983 41.3738 34.9045 40.7308 35.5032C39.115 37.004 37.0015 37.8206 34.8265 37.5061C32.0309 37.1033 29.1766 34.8328 27.2675 29.7457C26.6665 28.1484 25.579 26.2448 24.3796 25.0144C23.1467 23.6515 21.6511 22.5038 19.957 21.6569C19.5097 21.4472 19.4062 20.8486 19.7752 20.5065C20.8627 19.4912 22.0844 18.6746 23.3816 18.0594C22.6687 16.9724 22.0789 15.913 21.6455 14.8923C21.1032 13.6177 20.8012 12.3955 20.8012 11.2451C20.8012 8.1387 22.0789 5.32744 24.1392 3.29406C26.1996 1.26081 29.0511 0 32.1963 0C33.2139 0 34.2036 0.132423 35.1485 0.383476C35.9844 0.604182 36.7839 0.918686 37.5359 1.31319C38.2879 0.918686 39.0875 0.604182 39.9233 0.383476C40.8655 0.135185 41.8579 0 42.8755 0C46.0233 0 48.8721 1.26081 50.9326 3.29406C52.9566 5.29142 54.2231 8.03926 54.2678 11.0742L54.2672 11.0793ZM34.8824 31.3814C34.5553 31.5966 34.1108 31.5111 33.8928 31.1883C33.6747 30.8655 33.7614 30.4269 34.0885 30.2117C35.0837 29.5579 36.2299 29.2268 37.3789 29.2213C37.6249 29.2213 37.871 29.2351 38.1169 29.2654C36.4703 27.4419 34.5665 25.8804 32.4027 24.672C31.7681 24.5644 31.1614 24.5534 30.5827 24.6389C29.9789 24.73 29.403 24.9286 28.8607 25.2348C28.5196 25.4279 28.0835 25.3093 27.8878 24.97C27.6921 24.6334 27.8123 24.2031 28.1561 24.0099C28.6426 23.7368 29.1486 23.5299 29.6714 23.3892C27.5271 22.5587 25.2795 22.0677 22.9786 21.8552C23.8816 22.5146 24.7064 23.2622 25.4472 24.0788C26.8701 25.7976 27.8178 27.1577 28.609 29.2626C30.306 33.7815 32.7158 35.7762 35.0334 36.11C36.7499 36.3583 38.444 35.6934 39.7524 34.4768C40.2053 34.0547 40.6134 33.5663 40.9629 33.0256C40.5799 32.4242 40.1857 31.8476 39.7776 31.2958C39.0452 30.8489 38.2093 30.6255 37.3789 30.6282C36.5095 30.631 35.64 30.8821 34.8824 31.3814ZM41.9889 44.5715C41.7988 44.9412 41.5555 45.286 41.2732 45.5867C40.5408 46.373 39.5315 46.8861 38.4133 46.8861H35.8301L39.0003 47.4627C39.6797 47.5869 40.3283 47.6089 40.9545 47.5289C41.5807 47.4489 42.2014 47.2641 42.8248 46.9772L59.9309 39.0706C60.1601 38.9658 60.395 38.8775 60.6326 38.8085C60.6018 38.7451 60.5711 38.6844 60.5375 38.6237C60.1853 38.025 59.6318 37.6416 59.0111 37.476C58.3318 37.2967 57.563 37.3684 56.8585 37.694C51.9019 39.9838 46.945 42.2764 41.9889 44.5662L41.9889 44.5715ZM53.8118 37.5531C53.7615 37.4731 53.7056 37.393 53.6441 37.313L53.6329 37.2993C53.2052 36.7613 52.6097 36.4606 51.9751 36.3806C51.279 36.2923 50.527 36.4688 49.8728 36.8854L42.3725 41.6609C42.4452 41.9589 42.4816 42.2679 42.4816 42.5879L42.476 42.7893L53.8094 37.5503L53.8118 37.5531ZM41.7935 40.3561L49.1041 35.702C50.0407 35.1061 51.1309 34.8578 52.1569 34.9874C53.1493 35.1116 54.0803 35.5861 54.7568 36.4331L54.7792 36.4607C54.8994 36.6152 55.0084 36.7807 55.1091 36.9572L56.2581 36.4276C57.2701 35.9613 58.3856 35.8592 59.3808 36.1213C60.3565 36.3779 61.2203 36.9821 61.7739 37.9284C61.8885 38.1242 61.9836 38.3256 62.059 38.5243L62.073 38.5601L62.0982 38.6319C62.4225 38.6429 62.744 38.6898 63.0543 38.7698C64.0103 39.0208 64.8602 39.6085 65.4166 40.5244L65.534 40.7258C66.0204 41.6473 66.1183 42.7067 65.8639 43.6584C65.6067 44.6213 64.9945 45.4847 64.0691 46.0144C56.9766 49.5126 49.8872 53.3277 42.8478 56.9558C42.3055 57.2372 41.7715 57.4441 41.2236 57.5848C40.6757 57.7255 40.1082 57.8027 39.4959 57.822L19.1241 58.429C18.7607 58.44 18.4196 58.4841 18.087 58.5669C17.7571 58.6469 17.4356 58.7683 17.1029 58.9283L16.7255 59.1132L17.156 59.8498C17.4524 60.3546 17.5139 60.934 17.3713 61.4554C17.2315 61.9768 16.8849 62.4485 16.3705 62.741L12.9039 64.7163C12.3923 65.0088 11.8081 65.0667 11.2797 64.9287C10.7513 64.7908 10.2285 64.4018 9.9322 63.897L0.189685 47.1897C-0.0199873 46.7318 -0.05074 46.2324 0.0722705 45.7745C0.212049 45.2531 0.558709 44.7813 1.07028 44.4889L4.53688 42.5135C5.05127 42.2211 5.63838 42.1632 6.1639 42.3039C6.69507 42.4418 7.17028 42.7839 7.46665 43.2887L8.0677 44.3178L17.4495 38.7063C20.1025 36.5848 25.8365 37.2828 31.31 37.9504C33.868 38.2622 36.3673 38.5684 38.4025 38.5684C39.5264 38.5684 40.5468 39.0208 41.2848 39.7492C41.4721 39.9368 41.6426 40.1409 41.7908 40.3617L41.7935 40.3561ZM16.0098 57.8854L16.4711 57.6619C16.8932 57.4577 17.3098 57.3033 17.7402 57.1957C18.1624 57.0908 18.6069 57.0329 19.0849 57.0191L39.4567 56.4122C39.9543 56.3984 40.4155 56.3349 40.8657 56.219C41.313 56.1032 41.7463 55.9349 42.1881 55.7059L63.3564 44.7921C63.935 44.461 64.3237 43.912 64.4858 43.2996C64.6535 42.6733 64.5864 41.9808 64.2677 41.3739L64.1922 41.2387C63.8428 40.6621 63.3004 40.2924 62.6882 40.1297C62.0088 39.9503 61.2401 40.0221 60.5355 40.3476L43.4294 48.2542C42.669 48.6045 41.9086 48.8308 41.1343 48.9273C40.3571 49.0266 39.5659 48.999 38.744 48.8501L27.8972 46.8747C27.5114 46.8058 27.2542 46.4388 27.3241 46.0553C27.3856 45.716 27.6876 45.4787 28.0258 45.4787L38.4146 45.476C39.1107 45.476 39.7481 45.1422 40.2233 44.6345C40.7349 44.0883 41.0537 43.3434 41.0537 42.5903C41.0537 41.873 40.7545 41.2164 40.2765 40.7419C39.7957 40.2701 39.1331 39.9749 38.4062 39.9749C36.29 39.9749 33.7432 39.6632 31.1378 39.3459C25.938 38.7114 20.4921 38.0466 18.3286 39.8122L8.78149 45.5285L16.0113 57.888L16.0098 57.8854Z" fill="#4C7C04"/>
</svg>
