<svg width="56" height="44" viewBox="0 0 56 44" fill="none" xmlns="http://www.w3.org/2000/svg">
<g clip-path="url(#clip0_2_132)">
<path d="M6.12887 28.8671H16.6248C17.0006 28.8671 17.3069 29.1749 17.3069 29.5526V29.7764H19.3571C19.3233 29.6665 19.2915 29.5566 19.2577 29.4486C19.1941 29.2408 19.2319 29.0149 19.3591 28.8391C19.4884 28.6632 19.6912 28.5593 19.908 28.5593L50.1215 28.5613C50.3383 28.5613 50.5431 28.6652 50.6704 28.8411C50.7996 29.0169 50.8374 29.2428 50.7718 29.4506C50.6405 29.8743 50.5093 30.326 50.3721 30.8056C49.2306 34.7448 47.6695 40.1387 42.7795 40.1387L27.2522 40.1367C23.6647 40.1367 21.8691 37.2348 20.7155 34.1353H17.307V34.3592C17.307 34.7369 17.0007 35.0447 16.6249 35.0447H6.12895C4.43465 35.0447 3.0545 33.6577 3.0545 31.9549C3.0545 30.2521 4.43451 28.8671 6.12887 28.8671ZM20.9678 30.422C22.0437 34.1392 23.384 38.7661 27.25 38.7661H42.7793C46.6453 38.7661 47.9858 34.1395 49.0615 30.422C49.1092 30.2561 49.157 30.0922 49.2027 29.9343L20.827 29.9323C20.8727 30.0922 20.9201 30.2541 20.9678 30.422ZM17.3068 32.7623H20.244C20.069 32.2127 19.9079 31.6691 19.7568 31.1475H17.3068L17.3068 32.7623ZM6.12866 33.6736H15.9424V30.2381H6.12866C5.18603 30.2381 4.41842 31.0095 4.41842 31.9568C4.41842 32.9022 5.18603 33.6736 6.12866 33.6736ZM48.8943 13.716L47.4347 14.7732C47.6236 15.2229 47.735 15.7125 47.7409 16.2062C47.7568 17.3593 47.204 18.2587 46.2236 18.6724C42.9105 20.0794 40.9061 23.5608 41.3455 27.1403C41.3832 27.4441 41.2142 27.7359 40.9338 27.8558C40.8483 27.8918 40.7568 27.9098 40.6673 27.9098C40.4645 27.9098 40.2676 27.8198 40.1364 27.6539C39.3131 26.6247 38.7205 25.4495 38.3764 24.1625C37.7878 21.9561 38.0105 19.6118 39.0009 17.5635C39.9773 15.545 41.6338 13.9321 43.6643 13.0268C44.3384 12.727 45.0583 12.709 45.7463 12.9788C46.0904 13.1127 46.4086 13.3386 46.687 13.6244L48.0969 12.6031C48.4032 12.3813 48.8287 12.4512 49.0495 12.759C49.2682 13.0668 49.2006 13.4941 48.8943 13.716ZM45.975 14.9231C45.971 14.9151 45.9651 14.9091 45.9611 14.9011C45.7642 14.5974 45.5156 14.3615 45.2492 14.2556C45.0841 14.1897 44.921 14.1577 44.758 14.1577C44.577 14.1577 44.396 14.1977 44.2151 14.2796C40.558 15.9104 38.6548 19.9177 39.6909 23.8066C39.7804 24.1424 39.8898 24.4681 40.0171 24.7839C40.4904 21.5662 42.6063 18.7186 45.6889 17.4093C46.1502 17.2135 46.3809 16.8157 46.373 16.2242C46.369 15.7725 46.2136 15.2989 45.975 14.9231ZM38.6767 15.119C38.3187 15.2149 37.9548 15.2629 37.5929 15.2629C36.877 15.2629 36.169 15.075 35.5306 14.7053C34.5721 14.1497 33.886 13.2503 33.5997 12.1751C33.194 10.6562 33.6832 9.10737 34.7392 8.0901C34.415 7.90823 34.1068 7.66841 33.8264 7.37065C33.5659 7.09685 33.5778 6.66118 33.8522 6.40137C34.1247 6.13956 34.5582 6.15155 34.8167 6.42735C35.1249 6.75312 35.473 6.97096 35.819 7.06489L35.469 5.75185C35.3715 5.38612 35.5883 5.0104 35.9522 4.91247C36.3161 4.81454 36.69 5.03039 36.7874 5.39612L37.1374 6.70916C37.39 6.45335 37.5829 6.08963 37.6883 5.65193C37.7758 5.2842 38.1437 5.05834 38.5116 5.1463C38.8775 5.23424 39.1042 5.60397 39.0147 5.97371C38.9192 6.37142 38.7721 6.73516 38.5832 7.05493C40.0051 7.40667 41.2002 8.50386 41.6039 10.0208C42.1965 12.2372 40.8821 14.5234 38.6767 15.119ZM40.2875 10.3744C39.9554 9.12735 38.8298 8.30394 37.6009 8.30394C37.3642 8.30394 37.1216 8.33391 36.8829 8.39987C35.4034 8.79958 34.5224 10.3324 34.9201 11.8194C35.113 12.5409 35.5724 13.1444 36.2167 13.5161C36.8591 13.8879 37.6088 13.9878 38.3247 13.7919C39.8022 13.3942 40.6832 11.8614 40.2875 10.3744ZM24.4319 24.698C24.4319 25.8172 23.9983 26.8684 23.2108 27.6598C23.0836 27.7878 22.9086 27.8617 22.7276 27.8617C22.5466 27.8617 22.3736 27.7897 22.2444 27.6598L17.3185 22.7094C17.052 22.4416 17.052 22.0079 17.3185 21.7402C18.106 20.9487 19.1521 20.5131 20.2637 20.5131H20.2657C21.3773 20.5131 22.4214 20.9487 23.2069 21.7402C23.9983 22.5296 24.4319 23.5808 24.4319 24.698ZM22.2463 22.7114L22.2443 22.7094C21.7173 22.1778 21.0153 21.884 20.2676 21.884H20.2657C19.7506 21.884 19.2554 22.0239 18.8259 22.2837L22.6679 26.1449C22.9285 25.7113 23.0657 25.2136 23.0657 24.696C23.0677 23.9466 22.7753 23.241 22.2463 22.7114ZM48.3968 27.5439C48.2695 27.6718 48.0945 27.7458 47.9136 27.7458C47.7326 27.7458 47.5596 27.6738 47.4303 27.5439L45.0738 25.1756C44.8073 24.9078 44.8073 24.4741 45.0738 24.2064L46.4997 22.7734C46.0681 21.952 46.1894 20.9447 46.8695 20.2632C47.2712 19.8595 47.8062 19.6377 48.3749 19.6377C48.9437 19.6377 49.4786 19.8595 49.8803 20.2632L52.3184 22.7135C52.7241 23.1152 52.9448 23.6528 52.9448 24.2264C52.9448 24.798 52.7241 25.3356 52.3243 25.7392C51.9246 26.1429 51.3976 26.3668 50.8408 26.3668H50.8388C50.4828 26.3668 50.1368 26.2789 49.8246 26.111L48.3968 27.5439ZM50.8369 24.9957H50.8389C51.0318 24.9957 51.2107 24.9178 51.3579 24.7699C51.5011 24.626 51.5806 24.4322 51.5806 24.2263C51.5806 24.0205 51.5011 23.8266 51.3579 23.6827L48.9198 21.2325C48.7766 21.0886 48.5837 21.0086 48.3789 21.0086C48.1741 21.0086 47.9812 21.0886 47.838 21.2325C47.482 21.5882 47.5894 22.0698 47.8797 22.3616C48.1462 22.6294 48.1462 23.0631 47.8797 23.3309L46.5255 24.6919L47.9175 26.0909L49.2718 24.7299C49.405 24.596 49.58 24.528 49.755 24.528C49.93 24.528 50.105 24.596 50.2383 24.7299C50.4053 24.8998 50.6201 24.9957 50.8369 24.9957ZM45.3163 11.1419C44.1291 11.1419 43.1626 10.1706 43.1626 8.97744C43.1626 7.78428 44.129 6.815 45.3163 6.815C46.5055 6.815 47.47 7.78428 47.47 8.97744C47.47 10.1706 46.5035 11.1419 45.3163 11.1419ZM45.3163 8.18406C44.8808 8.18406 44.5268 8.5398 44.5268 8.9755C44.5268 9.41318 44.8808 9.76893 45.3163 9.76893C45.7518 9.76893 46.1058 9.41319 46.1058 8.9755C46.1058 8.53982 45.7518 8.18406 45.3163 8.18406ZM33.2773 13.1005C32.0404 10.9521 29.6023 9.79692 27.0608 10.1566C26.6869 10.2106 26.4284 10.5564 26.4801 10.9321C26.5338 11.3078 26.8779 11.5676 27.2517 11.5156C29.2383 11.2338 31.1395 12.1252 32.096 13.786C32.5991 14.6633 32.794 15.6646 32.6628 16.6819C32.6349 16.8897 32.7045 17.0996 32.8517 17.2495C33.0605 17.4633 33.2455 17.7092 33.4006 17.979C33.7824 18.6485 33.9474 19.4159 33.8719 20.1934C33.85 20.4152 33.9375 20.631 34.1045 20.7769C34.369 21.0067 34.5878 21.2765 34.7608 21.5763C35.1943 22.3318 35.2938 23.2211 35.0412 24.0825C34.7847 24.9558 34.198 25.6953 33.3906 26.165C31.7321 27.1263 29.65 26.6346 28.7491 25.0678C28.5741 24.762 28.4548 24.4342 28.3892 24.0945C28.3474 23.8747 28.2023 23.6908 28.0014 23.5989C27.2915 23.2751 26.7128 22.7495 26.327 22.078C26.1778 21.8161 26.0585 21.5324 25.975 21.2366C25.9173 21.0347 25.7721 20.8709 25.5812 20.7909C24.6366 20.3952 23.871 19.7237 23.3678 18.8483C22.7355 17.7471 22.5903 16.4501 22.9582 15.195C23.2664 14.1437 23.9048 13.2264 24.7817 12.5569L26.0246 14.7214L25.1695 16.5041C25.0065 16.8458 25.1476 17.2556 25.4877 17.4194C25.5832 17.4654 25.6846 17.4874 25.784 17.4874C26.0386 17.4874 26.2812 17.3455 26.3985 17.0997L26.8499 16.1563L27.7865 17.7851L26.9314 19.5719C26.7683 19.9136 26.9115 20.3233 27.2516 20.4872C27.347 20.5332 27.4485 20.5552 27.5459 20.5552C27.8004 20.5552 28.0431 20.4113 28.1624 20.1674L28.6138 19.2241L29.2203 20.2793L28.3632 22.064C28.2001 22.4058 28.3413 22.8155 28.6814 22.9794C28.7768 23.0254 28.8783 23.0473 28.9777 23.0473C29.2322 23.0473 29.4748 22.9055 29.5922 22.6596L30.0456 21.7163L30.8072 23.0413C30.9325 23.2611 31.1632 23.3851 31.3979 23.3851C31.5132 23.3851 31.6305 23.3551 31.7379 23.2931C32.0641 23.1033 32.1754 22.6836 31.9885 22.3558L31.2268 21.0308L32.2689 21.1087C32.6408 21.1347 32.9729 20.8529 33.0007 20.4752C33.0286 20.0975 32.7462 19.7677 32.3703 19.7397L30.4016 19.5918L29.795 18.5366L30.8351 18.6186C31.209 18.6445 31.5391 18.3627 31.5669 17.985C31.5948 17.6073 31.3144 17.2775 30.9365 17.2495L28.9678 17.1017L28.0311 15.4708L29.0732 15.5488C29.449 15.5768 29.7772 15.295 29.805 14.9172C29.8329 14.5395 29.5524 14.2097 29.1766 14.1818L27.2078 14.0339L25.6189 11.2679C25.6129 11.2579 25.609 11.2479 25.605 11.2379C25.599 11.2279 25.5931 11.2199 25.5871 11.2099L23.8669 8.2181C23.678 7.89034 23.2604 7.77842 22.9343 7.96628C22.6081 8.15614 22.4968 8.57584 22.6837 8.90358L24.0936 11.3638C22.9144 12.2172 22.0553 13.4203 21.6476 14.8093C21.1723 16.4281 21.3632 18.1089 22.1845 19.5379C22.7851 20.5831 23.672 21.4045 24.7598 21.9281C24.8632 22.2199 24.9905 22.4997 25.1416 22.7655C25.6149 23.5869 26.295 24.2484 27.1263 24.6961C27.2257 25.0638 27.3729 25.4196 27.5658 25.7553C28.4069 27.2203 29.9621 28.0317 31.5848 28.0317C32.426 28.0317 33.285 27.8138 34.0726 27.3562C35.1862 26.7106 35.9936 25.6874 36.3516 24.4743C36.7115 23.2492 36.5663 21.9781 35.9439 20.8949C35.755 20.5611 35.5223 20.2553 35.2538 19.9815C35.2817 19.0362 35.053 18.1149 34.5836 17.2935C34.4265 17.0217 34.2476 16.7699 34.0507 16.536C34.1422 15.3289 33.8779 14.1477 33.2773 13.1005ZM30.352 9.59902C29.1628 9.59902 28.1983 8.62974 28.1983 7.43657C28.1983 6.24146 29.1648 5.27213 30.352 5.27213C31.5392 5.27213 32.5057 6.24341 32.5057 7.43657C32.5077 8.62769 31.5413 9.59902 30.352 9.59902ZM30.352 6.6412C29.9165 6.6412 29.5625 6.99694 29.5625 7.43463C29.5625 7.87031 29.9165 8.22607 30.352 8.22607C30.7875 8.22607 31.1415 7.87033 31.1415 7.43463C31.1435 6.99695 30.7875 6.6412 30.352 6.6412Z" fill="#4C7C04"/>
</g>
<defs>
<clipPath id="clip0_2_132">
<rect width="56" height="44" fill="white" transform="matrix(-1 0 0 1 56 0)"/>
</clipPath>
</defs>
</svg>
