<svg width="20" height="21" viewBox="0 0 20 21" fill="none" xmlns="http://www.w3.org/2000/svg">
<path d="M9.99912 6.35736C9.99878 6.34607 9.99836 6.33478 9.9974 6.32341C9.99645 6.31201 9.99504 6.30076 9.99351 6.28954C9.99267 6.28374 9.99244 6.27798 9.99149 6.27214L9.36649 2.52214C9.35304 2.44114 9.32376 2.36358 9.28033 2.2939C9.2369 2.22422 9.18016 2.16378 9.11335 2.11604C9.04655 2.06829 8.971 2.03418 8.89101 2.01564C8.81102 1.99711 8.72816 1.99452 8.64716 2.00802C8.56617 2.02152 8.48863 2.05085 8.41898 2.09433C8.34932 2.13781 8.28892 2.19459 8.24122 2.26142C8.19352 2.32825 8.15945 2.40383 8.14097 2.48383C8.12249 2.56383 8.11995 2.6467 8.1335 2.72768L8.6372 5.74991H7.1875V2.62491C7.1875 2.45915 7.12165 2.30018 7.00444 2.18297C6.88723 2.06576 6.72826 1.99991 6.5625 1.99991C6.39674 1.99991 6.23777 2.06576 6.12056 2.18297C6.00335 2.30018 5.9375 2.45915 5.9375 2.62491V5.74991H4.4878L4.99149 2.72768C5.00505 2.6467 5.00251 2.56383 4.98403 2.48383C4.96555 2.40383 4.93148 2.32825 4.88378 2.26142C4.83608 2.19459 4.77567 2.13781 4.70602 2.09433C4.63637 2.05085 4.55883 2.02152 4.47783 2.00802C4.39684 1.99452 4.31398 1.99711 4.23399 2.01564C4.154 2.03418 4.07845 2.06829 4.01164 2.11604C3.94484 2.16378 3.8881 2.22422 3.84467 2.2939C3.80123 2.36358 3.77196 2.44114 3.75851 2.52214L3.13351 6.27214C3.13255 6.27798 3.13232 6.28374 3.13149 6.28954C3.12996 6.30075 3.12855 6.31201 3.12759 6.32341C3.12664 6.33478 3.12622 6.34607 3.12587 6.35736C3.12572 6.36324 3.125 6.369 3.125 6.37491C3.125 6.38048 3.12538 6.38594 3.12542 6.39147C3.12553 6.39532 3.12553 6.39913 3.12573 6.40295C3.13327 7.20092 3.41783 7.97147 3.93073 8.58281C4.44362 9.19416 5.15299 9.60831 5.9375 9.75443V17.6249C5.9375 17.7907 6.00335 17.9496 6.12056 18.0669C6.23777 18.1841 6.39674 18.2499 6.5625 18.2499C6.72826 18.2499 6.88723 18.1841 7.00444 18.0669C7.12165 17.9496 7.1875 17.7907 7.1875 17.6249V9.75443C7.97201 9.60831 8.68138 9.19416 9.19427 8.58281C9.70717 7.97147 9.99173 7.20091 9.99928 6.40295C9.99947 6.39913 9.99947 6.39532 9.99958 6.39147C9.99962 6.38594 10 6.38048 10 6.37491C10 6.369 9.99927 6.36324 9.99912 6.35736Z" fill="#8C8C8C"/>
<path d="M16.5619 2.61394C16.5617 2.60105 16.561 2.58815 16.56 2.57522C16.5593 2.56644 16.5585 2.55775 16.5574 2.54909C16.5561 2.53829 16.5544 2.5275 16.5525 2.5167C16.5506 2.50583 16.5485 2.49507 16.546 2.48443C16.544 2.47596 16.5418 2.46753 16.5395 2.4591C16.536 2.44655 16.5323 2.43419 16.5281 2.42198C16.5269 2.41847 16.5261 2.41492 16.5249 2.41141C16.5234 2.40764 16.5217 2.40413 16.5202 2.40039C16.5155 2.38815 16.5104 2.37612 16.5049 2.3643C16.5014 2.3566 16.4978 2.34899 16.494 2.34149C16.4888 2.33142 16.4834 2.32152 16.4777 2.31178C16.4727 2.30304 16.4675 2.29446 16.4621 2.28603C16.457 2.27809 16.4516 2.27039 16.4461 2.26268C16.4395 2.25337 16.4328 2.24425 16.4257 2.2354C16.4205 2.22888 16.4151 2.22259 16.4097 2.21629C16.4018 2.20729 16.3939 2.1984 16.3856 2.1899C16.3798 2.18394 16.3738 2.17822 16.3678 2.1725C16.3595 2.16457 16.3511 2.15678 16.3423 2.14935C16.3353 2.14336 16.328 2.13771 16.3207 2.13203C16.3126 2.12569 16.3044 2.1194 16.2959 2.11345C16.2872 2.10738 16.2783 2.1017 16.2694 2.09609C16.2618 2.09133 16.2542 2.08652 16.2463 2.08209C16.2362 2.07629 16.2257 2.07095 16.2152 2.06573C16.208 2.06214 16.2008 2.05856 16.1935 2.05524C16.1824 2.05028 16.1712 2.04578 16.1598 2.04143C16.1522 2.03857 16.1447 2.03571 16.137 2.03311C16.1261 2.02941 16.115 2.02617 16.1038 2.02308C16.0949 2.0206 16.086 2.01827 16.077 2.01617C16.0671 2.01392 16.057 2.01198 16.047 2.01019C16.036 2.0082 16.025 2.00652 16.0139 2.00515C16.0054 2.00412 15.9969 2.00328 15.9882 2.00256C15.9755 2.00153 15.9626 2.00088 15.9497 2.00061C15.9456 2.00053 15.9416 2 15.9375 2C15.9337 2 15.93 2.0005 15.9263 2.00057C15.9134 2.0008 15.9006 2.00149 15.8878 2.00252C15.879 2.0032 15.8702 2.004 15.8615 2.00507C15.8507 2.00641 15.84 2.00809 15.8292 2.01C15.8183 2.0119 15.8075 2.014 15.7969 2.01648C15.7884 2.01842 15.78 2.02064 15.7716 2.02296C15.759 2.0264 15.7467 2.03017 15.7345 2.03441C15.7309 2.03559 15.7274 2.03635 15.7239 2.03761C15.7162 2.04043 15.7086 2.04379 15.7009 2.04665C15.698 2.04783 15.695 2.04886 15.6921 2.05008C14.082 2.65521 12.7926 4.6305 11.8596 7.92338C11.4363 9.44287 11.1293 10.9923 10.9411 12.5584C10.9317 12.6456 10.9408 12.7338 10.9678 12.8172C10.9948 12.9006 11.039 12.9775 11.0976 13.0427C11.1562 13.1079 11.2279 13.1601 11.308 13.1958C11.3881 13.2315 11.4748 13.25 11.5625 13.25H15.3125V17.625C15.3125 17.7908 15.3783 17.9497 15.4955 18.0669C15.6127 18.1842 15.7717 18.25 15.9375 18.25C16.1032 18.25 16.2622 18.1842 16.3794 18.0669C16.4966 17.9497 16.5625 17.7908 16.5625 17.625V2.625C16.5625 2.62126 16.562 2.61768 16.5619 2.61394Z" fill="#8C8C8C"/>
</svg>
