<svg width="15" height="16" viewBox="0 0 15 16" fill="none" xmlns="http://www.w3.org/2000/svg">
<g opacity="0.9">
<path d="M14.2206 0.658057L12.9022 1.97642L13.5236 2.5978L14.8419 1.27944L14.2206 0.658057Z" fill="#006C41"/>
<path d="M13.2114 2.2884L14.5296 0.970229L14.8402 1.28088L13.522 2.59905L13.2114 2.2884Z" fill="#006C41"/>
<path d="M7.72145 7.15713L0 14.8786L0.621416 15.5L8.34287 7.77854L7.72145 7.15713Z" fill="#006C41"/>
<path d="M0.309686 15.188L8.02996 7.46777L8.34061 7.77842L0.620337 15.4987L0.309686 15.188Z" fill="#006C41"/>
<path d="M8.81836 0.5H9.69727V2.28711H8.81836V0.5Z" fill="#006C41"/>
<path d="M13.2129 5.80273H15V6.68164H13.2129V5.80273Z" fill="#006C41"/>
<path d="M8.81836 11.9551H7.93945V11.0762H7.06055V11.9551H6.18164V12.834H7.06055V13.7129H7.93945V12.834H8.81836V11.9551Z" fill="#006C41"/>
<path d="M4.42383 7.56055H3.54492V6.68164H2.66602V7.56055H1.78711V8.43945H2.66602V9.31836H3.54492V8.43945H4.42383V7.56055Z" fill="#006C41"/>
<path d="M11.5512 5.88729L12.4151 3.08489L9.67711 4.01316L7.2777 2.22315L7.31546 5.2165L4.87143 6.94514L7.68138 7.81862L7.73045 7.83392L8.61879 10.6929L10.3479 8.24847L13.3412 8.28711L11.5512 5.88729Z" fill="#006C41"/>
<path d="M8.61879 10.6929L10.3479 8.24847L13.3412 8.28711L11.5512 5.88729L12.4151 3.08489L7.68138 7.81862L7.73045 7.83392L8.61879 10.6929Z" fill="#006C41"/>
</g>
</svg>
