<svg width="26" height="29" viewBox="0 0 26 29" fill="none" xmlns="http://www.w3.org/2000/svg">
<path d="M26 15.609L18.5169 18.4913L15.6737 26.0773L12.8305 18.4913L5.34738 15.609L12.8305 12.7267L15.6737 5.14068L18.5169 12.7267L26 15.609ZM6.85719 6.95148L10.7535 5.45069L6.85719 3.94991L5.37676 0L3.89633 3.94991L0 5.45069L3.89633 6.95148L5.37676 10.9014L6.85719 6.95148ZM7.95833 22.3915L7.06089 24.786L4.69893 25.6958L7.06089 26.6056L7.95833 29L8.85578 26.6056L11.2177 25.6958L8.85578 24.786L7.95833 22.3915Z" fill="url(#paint0_linear_14_41650)"/>
<defs>
<linearGradient id="paint0_linear_14_41650" x1="13" y1="0" x2="33.7305" y2="54.3589" gradientUnits="userSpaceOnUse">
<stop stop-color="#168B5D"/>
<stop offset="1" stop-color="#45DBA0"/>
</linearGradient>
</defs>
</svg>
