<svg width="20" height="20" viewBox="0 0 20 20" fill="none" xmlns="http://www.w3.org/2000/svg">
<path d="M8.125 2.15909H11.875C12.0408 2.15909 12.1997 2.09324 12.3169 1.97603C12.4342 1.85882 12.5 1.69985 12.5 1.53409C12.5 1.36833 12.4342 1.20936 12.3169 1.09215C12.1997 0.974936 12.0408 0.909088 11.875 0.909088H8.125C7.95924 0.909088 7.80027 0.974936 7.68306 1.09215C7.56585 1.20936 7.5 1.36833 7.5 1.53409C7.5 1.69985 7.56585 1.85882 7.68306 1.97603C7.80027 2.09324 7.95924 2.15909 8.125 2.15909Z" fill="#8C8C8C"/>
<path d="M10 3.40909C8.51664 3.40909 7.0666 3.84896 5.83323 4.67307C4.59986 5.49718 3.63856 6.66852 3.07091 8.03896C2.50325 9.40941 2.35472 10.9174 2.64411 12.3723C2.9335 13.8271 3.64781 15.1635 4.6967 16.2124C5.7456 17.2613 7.08197 17.9756 8.53683 18.265C9.99168 18.5544 11.4997 18.4058 12.8701 17.8382C14.2406 17.2705 15.4119 16.3092 16.236 15.0759C17.0601 13.8425 17.5 12.3924 17.5 10.9091C17.4978 8.92066 16.7069 7.01431 15.3008 5.60827C13.8948 4.20223 11.9884 3.41134 10 3.40909ZM13.5355 8.25742L10.442 11.351C10.3839 11.4091 10.315 11.4551 10.2392 11.4865C10.1634 11.5179 10.0821 11.5341 10 11.5341C9.91795 11.5341 9.83668 11.5179 9.76085 11.4865C9.68501 11.4551 9.61611 11.4091 9.55807 11.3511C9.50003 11.293 9.45399 11.2241 9.42258 11.1483C9.39116 11.0725 9.37499 10.9912 9.37499 10.9091C9.37499 10.827 9.39115 10.7458 9.42255 10.6699C9.45396 10.5941 9.5 10.5252 9.55803 10.4672L12.6516 7.37355C12.7097 7.31551 12.7786 7.26947 12.8544 7.23806C12.9302 7.20665 13.0115 7.19048 13.0936 7.19048C13.1757 7.19048 13.2569 7.20664 13.3328 7.23805C13.4086 7.26946 13.4775 7.3155 13.5355 7.37353C13.5936 7.43157 13.6396 7.50046 13.671 7.57629C13.7024 7.65212 13.7186 7.73339 13.7186 7.81547C13.7186 7.89754 13.7024 7.97882 13.671 8.05465C13.6396 8.13048 13.5936 8.19938 13.5355 8.25742H13.5355Z" fill="#8C8C8C"/>
</svg>
