<svg width="20" height="19" viewBox="0 0 20 19" fill="none" xmlns="http://www.w3.org/2000/svg">
<g opacity="0.9">
<path d="M18.5127 0.200205L16.8428 1.87013L17.6299 2.65722L19.2998 0.987295L18.5127 0.200205Z" fill="#686868"/>
<path d="M17.2344 2.2653L18.9041 0.595623L19.2976 0.989115L17.6279 2.6588L17.2344 2.2653Z" fill="#686868"/>
<path d="M10.2805 8.43236L0.5 18.2129L1.28713 19L11.0676 9.21949L10.2805 8.43236Z" fill="#4D4D80"/>
<path d="M0.892268 18.6049L10.6713 8.82584L11.0648 9.21933L1.28576 18.9983L0.892268 18.6049Z" fill="#4B3D66"/>
<path d="M11.6699 0H12.7832V2.26367H11.6699V0Z" fill="#686868"/>
<path d="M17.2363 6.7168H19.5V7.83008H17.2363V6.7168Z" fill="#686868"/>
<path d="M11.6699 14.5098H10.5566V13.3965H9.44336V14.5098H8.33008V15.623H9.44336V16.7363H10.5566V15.623H11.6699V14.5098Z" fill="#686868"/>
<path d="M6.10352 8.94336H4.99023V7.83008H3.87695V8.94336H2.76367V10.0566H3.87695V11.1699H4.99023V10.0566H6.10352V8.94336Z" fill="#686868"/>
<path d="M15.1315 6.82389L16.2258 3.2742L12.7577 4.45001L9.71841 2.18266L9.76625 5.97424L6.67047 8.16384L10.2297 9.27026L10.2919 9.28963L11.4171 12.9111L13.6073 9.81472L17.3989 9.86367L15.1315 6.82389Z" fill="#686868"/>
<path d="M11.4171 12.9111L13.6073 9.81472L17.3989 9.86367L15.1315 6.82389L16.2258 3.2742L10.2297 9.27026L10.2919 9.28963L11.4171 12.9111Z" fill="#686868"/>
</g>
</svg>
